<?xml version="1.0" encoding="utf-8"?>
<svg id="master-artboard" viewBox="0 0 550 385" xmlns="http://www.w3.org/2000/svg" width="550px" height="385px"><title>free-line-photocopier-vector-icons</title><path d="M 275 192.5 H 550 V 385 H 275 V 192.5 Z" class="cls-1" style="fill: rgb(49, 46, 41);" transform="matrix(1, 0, 0, 1, 2.842170943040401e-14, 7.105427357601002e-15)"/><path class="cls-2" d="M434.22,235.72H413.9v15h-6.17L363.3,236.35l-.8,2.45,36.83,11.9h-29.4v91.07h92.44v-88.5h.13V242ZM413.9,253.28h45a32.46,32.46,0,0,1-7.69,7.21c-6,4.16-17,9.12-34.88,9.12s-28.84-5-34.89-9.12a32.54,32.54,0,0,1-7.69-7.21Zm45.89,85.91H372.5V320.88h24v8.64h39.34v-8.64h24Zm-60.73-12.25v-6.06h34.18v6.06Zm60.73-8.64H372.5V255.9a36,36,0,0,0,7.29,6.6c6.36,4.42,17.86,9.69,36.51,9.69s30.15-5.27,36.5-9.69a36.48,36.48,0,0,0,7-6.24Zm.13-67.6H416.47V238.3h17.46l26,5.79ZM435,255.53H397.32v9.74H435Zm-28.67,8H399v-2.39h7.26Zm0-4.11H399v-2.19h7.26Zm9,4.11H408v-2.39h7.26Zm0-4.11H408v-2.19h7.26Zm9,4.11H417v-2.39h7.26Zm0-4.11H417v-2.19h7.26Zm9,4.11H426v-2.39h7.26Zm0-4.11H426v-2.19h7.26Z" style="fill: rgb(255, 255, 255);" transform="matrix(1, 0, 0, 1, 2.842170943040401e-14, 7.105427357601002e-15)"/><path d="M 0 192.5 H 275 V 385 H 0 V 192.5 Z" class="cls-3" style="fill: rgb(255, 225, 0);" transform="matrix(1, 0, 0, 1, 2.842170943040401e-14, 7.105427357601002e-15)"/><path d="M 187.5 242.02000427246094 L 159.22000122070312 235.72000122070312 L 159.0800018310547 235.72000122070312 L 138.89999389648438 235.72000122070312 L 138.89999389648438 250.6999969482422 L 132.72999572753906 250.6999969482422 L 88.30000305175781 236.35000610351562 L 87.5 238.8000030517578 L 124.33000183105469 250.6999969482422 L 94.93000030517578 250.6999969482422 L 94.93000030517578 341.7799987792969 L 187.3699951171875 341.7799987792969 L 187.3699951171875 253.27999877929688 L 187.5 253.27999877929688 L 187.5 242.02000427246094 Z" class="cls-4" style="fill: rgb(50, 56, 63);" transform="matrix(1, 0, 0, 1, 2.842170943040401e-14, 7.105427357601002e-15)"/><path class="cls-5" d="M138.9,253.28h45a32.46,32.46,0,0,1-7.69,7.21c-6,4.16-17,9.12-34.88,9.12s-28.84-5-34.89-9.12a32.54,32.54,0,0,1-7.69-7.21Z" style="fill: rgb(170, 178, 188);" transform="matrix(1, 0, 0, 1, 2.842170943040401e-14, 7.105427357601002e-15)"/><path class="cls-6" d="M141.47,238.3h17.46l26,5.79v6.61H141.47Z" style="fill: rgb(101, 109, 120);" transform="matrix(1, 0, 0, 1, 2.842170943040401e-14, 7.105427357601002e-15)"/><path class="cls-7" d="M124.06,320.88h34.18v6.06H124.06Z" style="fill: rgb(67, 74, 84);" transform="matrix(1, 0, 0, 1, 2.842170943040401e-14, 7.105427357601002e-15)"/><path class="cls-6" d="M160.82,329.52v-8.64h24v18.32H97.5V320.88h24v8.64Z" style="fill: rgb(101, 109, 120);" transform="matrix(1, 0, 0, 1, 2.842170943040401e-14, 7.105427357601002e-15)"/><path class="cls-6" d="M184.79,318.3H97.5V255.9a36,36,0,0,0,7.29,6.6c6.36,4.42,17.86,9.69,36.51,9.69s30.15-5.27,36.5-9.69a36.48,36.48,0,0,0,7-6.24Z" style="fill: rgb(101, 109, 120);" transform="matrix(1, 0, 0, 1, 2.842170943040401e-14, 7.105427357601002e-15)"/><path d="M 159.97999572753906 255.52999877929688 L 159.1199951171875 255.52999877929688 L 122.31999969482422 255.52999877929688 L 122.31999969482422 265.2699890136719 L 159.97999572753906 265.2699890136719 L 159.97999572753906 255.52999877929688 Z" class="cls-4" style="fill: rgb(50, 56, 63);" transform="matrix(1, 0, 0, 1, 2.842170943040401e-14, 7.105427357601002e-15)"/><path class="cls-8" d="M158.25,259.44H151v-2.19h7.26Z" style="fill: rgb(204, 209, 217);" transform="matrix(1, 0, 0, 1, 2.842170943040401e-14, 7.105427357601002e-15)"/><path class="cls-6" d="M140.29,261.16v2.39H133v-2.39Z" style="fill: rgb(101, 109, 120);" transform="matrix(1, 0, 0, 1, 2.842170943040401e-14, 7.105427357601002e-15)"/><path class="cls-8" d="M133,259.44v-2.19h7.26v2.19Z" style="fill: rgb(204, 209, 217);" transform="matrix(1, 0, 0, 1, 2.842170943040401e-14, 7.105427357601002e-15)"/><path class="cls-6" d="M142,261.16h7.26v2.39H142Z" style="fill: rgb(101, 109, 120);" transform="matrix(1, 0, 0, 1, 2.842170943040401e-14, 7.105427357601002e-15)"/><path class="cls-8" d="M142,259.44v-2.19h7.26v2.19Z" style="fill: rgb(204, 209, 217);" transform="matrix(1, 0, 0, 1, 2.842170943040401e-14, 7.105427357601002e-15)"/><path class="cls-8" d="M131.3,257.25v2.19H124v-2.19Z" style="fill: rgb(204, 209, 217);" transform="matrix(1, 0, 0, 1, 2.842170943040401e-14, 7.105427357601002e-15)"/><path class="cls-6" d="M124,261.16h7.26v2.39H124Z" style="fill: rgb(101, 109, 120);" transform="matrix(1, 0, 0, 1, 2.842170943040401e-14, 7.105427357601002e-15)"/><path class="cls-6" d="M151,263.55v-2.39h7.26v2.39Z" style="fill: rgb(101, 109, 120);" transform="matrix(1, 0, 0, 1, 2.842170943040401e-14, 7.105427357601002e-15)"/><path d="M 275 0 H 550 V 192.5 H 275 V 0 Z" class="cls-9" style="fill: rgb(240, 51, 163);" transform="matrix(1, 0, 0, 1, 2.842170943040401e-14, 7.105427357601002e-15)"/><path class="cls-4" d="M473.66,68.12h-9.6V43.06H443.49V51H399V59.4H366V91l-16-7.14v43L366,134v15.43h98.06V108.77H475V68.12ZM366,131.07l-13.33-6V120L366,126Zm0-8-13.33-6V112L366,118Zm0-8-13.33-6V104l13.33,6Zm0-8-13.33-6V96l13.33,6Zm0-8-13.33-6v-5.1l13.33,6Zm33,47.79H368.67V62.08H399Zm62.4,0H401.66v-10.7H423.5v4h17.83v-4h20.06Zm0-13.38H401.66v-11H423.5v4h17.83v-4h20.06Zm0-13.64H401.66v-11H423.5v4h17.83v-4h20.06Zm0-13.65H401.66v-44h59.73Zm0-46.7H401.66V53.68h44.5V45.74h15.23Zm10.94,46.7h-7.9V70.79h7.9ZM457.47,70.2H442.33V65.75h15.15Z" style="fill: rgb(50, 56, 63);" transform="matrix(1, 0, 0, 1, 2.842170943040401e-14, 7.105427357601002e-15)"/><path d="M 0 0 H 275 V 192.5 H 0 V 0 Z" class="cls-10" style="fill: rgb(51, 190, 242);" transform="matrix(1, 0, 0, 1, 2.842170943040401e-14, 7.105427357601002e-15)"/><path class="cls-4" d="M198.66,68.12h-9.6V43.06H168.49V51H124V59.4H91V91L75,83.81v43L91,134v15.43h98.06V108.77H200V68.12Z" style="fill: rgb(50, 56, 63);" transform="matrix(1, 0, 0, 1, 2.842170943040401e-14, 7.105427357601002e-15)"/><path class="cls-8" d="M91,131.07l-13.33-6V120L91,126Z" style="fill: rgb(204, 209, 217);" transform="matrix(1, 0, 0, 1, 2.842170943040401e-14, 7.105427357601002e-15)"/><path class="cls-8" d="M91,123l-13.33-6V112L91,118Z" style="fill: rgb(204, 209, 217);" transform="matrix(1, 0, 0, 1, 2.842170943040401e-14, 7.105427357601002e-15)"/><path class="cls-8" d="M91,115l-13.33-6V104l13.33,6Z" style="fill: rgb(204, 209, 217);" transform="matrix(1, 0, 0, 1, 2.842170943040401e-14, 7.105427357601002e-15)"/><path class="cls-8" d="M91,107l-13.33-6V96l13.33,6Z" style="fill: rgb(204, 209, 217);" transform="matrix(1, 0, 0, 1, 2.842170943040401e-14, 7.105427357601002e-15)"/><path class="cls-8" d="M91,99,77.67,93v-5.1l13.33,6Z" style="fill: rgb(204, 209, 217);" transform="matrix(1, 0, 0, 1, 2.842170943040401e-14, 7.105427357601002e-15)"/><path class="cls-5" d="M124,146.77H93.67V62.08H124Z" style="fill: rgb(170, 178, 188);" transform="matrix(1, 0, 0, 1, 2.842170943040401e-14, 7.105427357601002e-15)"/><path class="cls-6" d="M186.38,146.77H126.66v-10.7H148.5v4h17.83v-4h20.06Z" style="fill: rgb(101, 109, 120);" transform="matrix(1, 0, 0, 1, 2.842170943040401e-14, 7.105427357601002e-15)"/><path class="cls-6" d="M186.38,133.39H126.66v-11H148.5v4h17.83v-4h20.06Z" style="fill: rgb(101, 109, 120);" transform="matrix(1, 0, 0, 1, 2.842170943040401e-14, 7.105427357601002e-15)"/><path class="cls-6" d="M186.38,119.75H126.66v-11H148.5v4h17.83v-4h20.06Z" style="fill: rgb(101, 109, 120);" transform="matrix(1, 0, 0, 1, 2.842170943040401e-14, 7.105427357601002e-15)"/><path class="cls-6" d="M186.38,106.1H126.66v-44h59.73Z" style="fill: rgb(101, 109, 120);" transform="matrix(1, 0, 0, 1, 2.842170943040401e-14, 7.105427357601002e-15)"/><path class="cls-6" d="M186.38,59.4H126.66V53.68h44.5V45.74h15.23Z" style="fill: rgb(101, 109, 120);" transform="matrix(1, 0, 0, 1, 2.842170943040401e-14, 7.105427357601002e-15)"/><path class="cls-8" d="M197.32,106.1h-7.9V70.8h7.9Z" style="fill: rgb(204, 209, 217);" transform="matrix(1, 0, 0, 1, 2.842170943040401e-14, 7.105427357601002e-15)"/><path d="M 167.330002 65.75 H 182.480001 V 70.21 H 167.330002 V 65.75 Z" class="cls-4" style="fill: rgb(50, 56, 63);" transform="matrix(1, 0, 0, 1, 2.842170943040401e-14, 7.105427357601002e-15)"/></svg>