<?xml version="1.0" encoding="utf-8"?>
<svg id="master-artboard" viewBox="0 0 1568 1400" version="1.1" xmlns="http://www.w3.org/2000/svg" x="0px" y="0px" width="1568px" height="1400px" enable-background="new 0 0 1568 1400">
<path fill="#9EE7FF" d="M941.9,293.1h11H986c16.6,0,30-13.4,30-30c0-16.6,13.4-30,30-30H1171c16.6,0,30,13.5,30,30&#10;&#9;&#9;c0,16.6,13.5,30,30.1,30l0,0h31.7h60.1h33.2h57.6c16.6,0,30,13.5,30,30c0,16.6-13.5,30-30,30h-28.4c-16.6,0-30.1,13.5-30.1,30.1&#10;&#9;&#9;s-13.5,30-30.1,30H1292h-60.1h-31.7l0,0c-16.6,0-30-13.4-30.1-30c0,0,0,0,0,0v0c0-16.6-13.5-30-30-30h0h-124.9l0,0h-73.3h0&#10;&#9;&#9;c-16.6,0-30.1-13.4-30.1-30C911.8,306.6,925.3,293.1,941.9,293.1z" transform="matrix(1, 0, 0, 1, 2.842170943040401e-14, 7.105427357601002e-15)"/><path fill="#9EE7FF" d="M651.4,100.5H392.9c-17.2,0-31.1,13.9-31.1,31.1c0,17.2-13.9,31.1-31.1,31.1l0,0h-162l0,0&#10;&#9;&#9;c-17.2,0-31.1,13.9-31.1,31.1c0,17.2,13.9,31.1,31.1,31.1h258.4c17.2,0,31.1-13.9,31.1-31.1c0-17.2,13.9-31.1,31.1-31.1h162l0,0&#10;&#9;&#9;c17.2,0,31.1-13.9,31.1-31.1C682.4,114.4,668.5,100.5,651.4,100.5z" transform="matrix(1, 0, 0, 1, 2.842170943040401e-14, 7.105427357601002e-15)"/><path fill="#9EE7FF" d="M276.2,513.7H243h-60.1h-67.2l0,0c-16.6,0-30.1-13.4-30.1-30.1c0-16.6,13.5-30,30.1-30h160.4&#10;&#9;&#9;c16.6,0,30.1,13.4,30.1,30C306.3,500.2,292.8,513.7,276.2,513.7z" transform="matrix(1, 0, 0, 1, 2.842170943040401e-14, 7.105427357601002e-15)"/><path fill="#9EE7FF" d="M1123.4,161.6h-33.2h-60.1H963l0,0c-16.6,0-30.1-13.5-30.1-30.1c0-16.6,13.5-30,30.1-30h160.4&#10;&#9;&#9;c16.6,0,30.1,13.5,30.1,30C1153.5,148.2,1140,161.6,1123.4,161.6z" transform="matrix(1, 0, 0, 1, 2.842170943040401e-14, 7.105427357601002e-15)"/><path fill="#9EE7FF" d="M490.3,371.5h-33.2h-76.6H366l0,0c-16.6,0-30.1-13.5-30.1-30.1c0-16.6,13.5-30,30.1-30h124.3&#10;&#9;&#9;c16.6,0,30.1,13.4,30.1,30C520.4,358,506.9,371.5,490.3,371.5z" transform="matrix(1, 0, 0, 1, 2.842170943040401e-14, 7.105427357601002e-15)"/><path fill="#9EE7FF" d="M1434,540.2h-33.2h-47.7h-14.5l0,0c-16.6,0-30.1-13.5-30.1-30.1c0-16.6,13.5-30.1,30.1-30.1h95.3&#10;&#9;&#9;c16.6,0,30.1,13.5,30.1,30.1C1464,526.8,1450.6,540.2,1434,540.2z" transform="matrix(1, 0, 0, 1, 2.842170943040401e-14, 7.105427357601002e-15)"/><path fill="#9EE7FF" d="M847.8,131.6c0,17.2-13.9,31.1-31.1,31.1c-17.2,0-31.1-13.9-31.1-31.1c0-17.2,13.9-31.1,31.1-31.1&#10;&#9;&#9;C833.9,100.5,847.8,114.4,847.8,131.6z" transform="matrix(1, 0, 0, 1, 2.842170943040401e-14, 7.105427357601002e-15)"/><path fill="#9EE7FF" d="M247.4,341.4c0,17.2-13.9,31.1-31.1,31.1c-17.2,0-31.1-13.9-31.1-31.1c0-17.2,13.9-31.1,31.1-31.1&#10;&#9;&#9;C233.5,310.4,247.4,324.3,247.4,341.4z" transform="matrix(1, 0, 0, 1, 2.842170943040401e-14, 7.105427357601002e-15)"/><path fill="#9EE7FF" d="M1307.2,131.6c0,17.2-13.9,31.1-31.1,31.1c-17.2,0-31.1-13.9-31.1-31.1c0-17.2,13.9-31.1,31.1-31.1&#10;&#9;&#9;C1293.3,100.5,1307.2,114.4,1307.2,131.6z" transform="matrix(1, 0, 0, 1, 2.842170943040401e-14, 7.105427357601002e-15)"/><path fill="#9EE7FF" d="M1279.7,1005.2c5.6-31.2,8.5-63.4,8.5-96.2c0-301.6-244.5-546.1-546.1-546.1S196,607.4,196,909&#10;&#9;&#9;c0,32.8,2.9,65,8.4,96.2H1279.7z" transform="matrix(1, 0, 0, 1, 2.842170943040401e-14, 7.105427357601002e-15)"/><path fill="#2E4452" d="M1282.9,578.9h-24.5c13.4,0,21.2,10.5,17.3,23.4l-102.3,327c-3.9,12.9-18.1,23.4-31.5,23.4h24.5&#10;&#9;&#9;c13.4,0,27.6-10.5,31.5-23.4l102.3-327C1304.1,589.4,1296.3,578.9,1282.9,578.9z" transform="matrix(1, 0, 0, 1, 2.842170943040401e-14, 7.105427357601002e-15)"/><path fill="#3D586B" d="M1258.4,578.9H743.2h-24.5c-13.4,0-27.6,10.5-31.5,23.4l-102.3,327c-3.9,12.9,3.9,23.4,17.3,23.4h24.5&#10;&#9;&#9;h515.2c13.4,0,27.6-10.5,31.5-23.4l102.3-327C1279.6,589.4,1271.8,578.9,1258.4,578.9z" transform="matrix(1, 0, 0, 1, 2.842170943040401e-14, 7.105427357601002e-15)"/><path fill="#2E4452" d="M725.4,607.9h525.3l2.1-6.8H718.6c-3.7,0-9.2,4.1-10.3,7.8L607.6,930.4h8.9L715,615.7&#10;&#9;&#9;C716.2,612,721.7,607.9,725.4,607.9z" transform="matrix(1, 0, 0, 1, 2.842170943040401e-14, 7.105427357601002e-15)"/><path fill="#2E4452" d="M1162.9,940.4H849.7h-48.9c-14.7,0-26.7,11.9-26.7,26.7v2.2c0,14.7,11.9,26.7,26.7,26.7h48.9h313.2&#10;&#9;&#9;&#9;c14.7,0,26.7-11.9,26.7-26.7v-2.2C1189.6,952.4,1177.6,940.4,1162.9,940.4z" transform="matrix(1, 0, 0, 1, 5.684341886080802e-14, 1.4210854715202004e-14)"/><path fill="#253642" d="M981.9,968.2c0,4.3-3.5,7.8-7.8,7.8H814.2c-4.3,0-7.8-3.5-7.8-7.8l0,0c0-4.3,3.5-7.8,7.8-7.8h159.9&#10;&#9;&#9;&#9;C978.4,960.4,981.9,963.9,981.9,968.2L981.9,968.2z" transform="matrix(1, 0, 0, 1, 5.684341886080802e-14, 1.4210854715202004e-14)"/><path d="M 1025.200025 968.200012 A 7.8 7.8 0 0 1 1017.400024 976.000012 A 7.8 7.8 0 0 1 1009.600024 968.200012 A 7.8 7.8 0 0 1 1017.400024 960.400012 A 7.8 7.8 0 0 1 1025.200025 968.200012 Z" fill="#253642" transform="matrix(1, 0, 0, 1, 5.684341886080802e-14, 1.4210854715202004e-14)"/><path fill="#253642" d="M1062.8,968.2c0,4.3-3.5,7.8-7.8,7.8c-4.3,0-7.8-3.5-7.8-7.8s3.5-7.8,7.8-7.8&#10;&#9;&#9;&#9;C1059.3,960.4,1062.8,963.9,1062.8,968.2z" transform="matrix(1, 0, 0, 1, 5.684341886080802e-14, 1.4210854715202004e-14)"/><path fill="#354D5D" d="M774.2,969.3v-2.2c0-14.7,11.9-26.7,26.7-26.7H621.5v7c0,6.4-5.2,11.5-11.5,11.5H449.8&#10;&#9;&#9;&#9;c-6.4,0-11.5-5.2-11.5-11.5v-7H285.6c-14.7,0-26.7,11.9-26.7,26.7v2.2c0,14.7,11.9,26.7,26.7,26.7h515.3&#10;&#9;&#9;&#9;C786.1,996,774.2,984,774.2,969.3z" transform="matrix(1, 0, 0, 1, 5.684341886080802e-14, 1.4210854715202004e-14)"/><path fill="#486780" d="M449.8,959H610c6.4,0,11.5-5.2,11.5-11.5v-7H438.3v7C438.3,953.8,443.4,959,449.8,959z" transform="matrix(1, 0, 0, 1, 5.684341886080802e-14, 1.4210854715202004e-14)"/><path fill="#BCBEC0" d="M1250.7,607.9H725.4c-3.6,0-9.2,4.1-10.3,7.8l-7.3,23.4h533.2L1250.7,607.9z" transform="matrix(1, 0, 0, 1, 5.684341886080802e-14, 1.4210854715202004e-14)"/><path fill="#FF7D70" d="M707.7,639.1l-91.2,291.3h525.3c3.6,0,9.2-4.1,10.3-7.8l88.7-283.5H707.7z" transform="matrix(1, 0, 0, 1, 5.684341886080802e-14, 1.4210854715202004e-14)"/><path fill="#FFE49C" d="M746.2,623.5c0,5.2-4.2,9.4-9.3,9.4c-5.2,0-9.3-4.2-9.3-9.4c0-5.2,4.2-9.3,9.3-9.3&#10;&#9;&#9;C742,614.2,746.2,618.3,746.2,623.5z" transform="matrix(1, 0, 0, 1, 2.842170943040401e-14, 7.105427357601002e-15)"/><path fill="#00E19C" d="M1200.6,623.5c0,5.2-4.2,9.4-9.3,9.4c-5.2,0-9.4-4.2-9.4-9.4c0-5.2,4.2-9.3,9.4-9.3&#10;&#9;&#9;C1196.4,614.2,1200.6,618.3,1200.6,623.5z" transform="matrix(1, 0, 0, 1, 2.842170943040401e-14, 7.105427357601002e-15)"/><path fill="#FF7D70" d="M1231.9,623.5c0,5.2-4.2,9.4-9.3,9.4c-5.2,0-9.4-4.2-9.4-9.4c0-5.2,4.2-9.3,9.4-9.3&#10;&#9;&#9;C1227.7,614.2,1231.9,618.3,1231.9,623.5z" transform="matrix(1, 0, 0, 1, 2.842170943040401e-14, 7.105427357601002e-15)"/><path d="M 796.2999877929688 765.0999755859375 L 696.7000122070312 765.0999755859375 L 726.2000122070312 665.0999755859375 L 826.0999755859375 665.0999755859375 Z" fill="#FFFFFF" transform="matrix(1, 0, 0, 1, 5.684341886080802e-14, 1.4210854715202004e-14)"/><path d="M 757.9000244140625 893.7000122070312 L 658.7000122070312 893.7000122070312 L 688.2000122070312 793.7000122070312 L 787.7999877929688 793.7000122070312 Z" fill="#FFFFFF" transform="matrix(1, 0, 0, 1, 5.684341886080802e-14, 1.4210854715202004e-14)"/><path d="M 1193.199951171875 682.9000244140625 L 848.5999755859375 682.9000244140625 L 853.9000244140625 665.0999755859375 L 1198.699951171875 665.0999755859375 Z" fill="#FFFFFF" transform="matrix(1, 0, 0, 1, 5.684341886080802e-14, 1.4210854715202004e-14)"/><path d="M 1183.199951171875 715.0999755859375 L 839 715.0999755859375 L 844.2999877929688 697.2999877929688 L 1188.800048828125 697.2999877929688 Z" fill="#FFFFFF" transform="matrix(1, 0, 0, 1, 5.684341886080802e-14, 1.4210854715202004e-14)"/><path d="M 1173.300048828125 747.2999877929688 L 829.2999877929688 747.2999877929688 L 834.5999755859375 729.5 L 1178.800048828125 729.5 Z" fill="#FFFFFF" transform="matrix(1, 0, 0, 1, 5.684341886080802e-14, 1.4210854715202004e-14)"/><path d="M 1163.300048828125 779.5 L 819.7000122070312 779.5 L 825 761.7000122070312 L 1168.800048828125 761.7000122070312 Z" fill="#FFFFFF" transform="matrix(1, 0, 0, 1, 5.684341886080802e-14, 1.4210854715202004e-14)"/><path d="M 1129.5 888.2999877929688 L 787.0999755859375 888.2999877929688 L 792.4000244140625 870.5999755859375 L 1135 870.5999755859375 Z" fill="#FFFFFF" transform="matrix(1, 0, 0, 1, 5.684341886080802e-14, 1.4210854715202004e-14)"/><path d="M 1158.800048828125 793.7000122070312 L 815.4000244140625 793.7000122070312 L 796.2000122070312 858 L 1138.9000244140625 858 Z" fill="#FFFFFF" transform="matrix(1, 0, 0, 1, 5.684341886080802e-14, 1.4210854715202004e-14)"/><path fill="#FFD38F" d="M819.7,1079.6v-57c0-14.7,11.9-26.6,26.6-26.6H67.2c-14.7,0-26.7,11.9-26.7,26.6v57&#10;&#9;&#9;&#9;c0,14.7,11.9,26.7,26.7,26.7h779.2C831.6,1106.3,819.7,1094.3,819.7,1079.6z" transform="matrix(1, 0, 0, 1, 5.684341886080802e-14, 1.4210854715202004e-14)"/><path fill="#E6BD80" d="M1498.3,996h-171H846.3c-14.7,0-26.6,11.9-26.6,26.6v57c0,14.7,11.9,26.7,26.6,26.7h480.9h171&#10;&#9;&#9;&#9;c14.7,0,26.6-11.9,26.6-26.7v-57C1524.9,1007.9,1513,996,1498.3,996z" transform="matrix(1, 0, 0, 1, 5.684341886080802e-14, 1.4210854715202004e-14)"/><g transform="matrix(1, 0, 0, 1, 5.684341886080802e-14, 1.4210854715202004e-14)">
			<path fill="#FFFFFF" d="M1386.3,966.8V846.1h-118.5v137.6h103.8C1371.6,983.6,1386.3,982.2,1386.3,966.8z"/>
			<path fill="#F0F0F0" d="M1386.3,846.1v120.7c0,15.4-14.7,16.9-14.7,16.9h-103.8V996h129.7V846.1H1386.3z"/>
		</g><path fill="#FFFFFF" d="M1415.9,879.1h-18.4v14.1h18.4c9.5,0,17.2,7.7,17.2,17.2v21.3c0,9.5-7.7,17.2-17.2,17.2h-18.4V963h18.4&#10;&#9;&#9;&#9;&#9;c17.2,0,31.3-14,31.3-31.3v-21.3C1447.2,893.1,1433.2,879.1,1415.9,879.1z" transform="matrix(1, 0, 0, 1, 8.526512829121202e-14, 2.1316282072803006e-14)"/><path fill="#FEFFFF" d="M938.3,877.1c6.2-11,9.5-23.5,9.5-36.1c0-40.7-33.1-73.7-73.7-73.7c-20.5,0-40,8.5-53.9,23.5&#10;&#9;&#9;&#9;c-8.2-14.8-23.1-24.5-39.9-26.1c6.1-8.5,9.5-18.8,9.5-29.3c0-27.6-22.4-50-50-50c-10.7,0-21.1,3.4-29.6,9.8V511.7&#10;&#9;&#9;&#9;c0-0.8-0.7-1.5-1.5-1.5h-93.9c-0.8,0-1.5,0.7-1.5,1.5v197.1c-5.4-2-11.1-3.1-16.8-3.1c-26.5,0-48,21.5-48,48&#10;&#9;&#9;&#9;c0,6.5,1.3,12.8,3.9,18.8c-11.9,5.9-21.3,15.6-26.8,27.6c-7.9-11.1-20.4-17.6-34.1-17.6c-20.4,0-37.8,14.8-41.3,34.7&#10;&#9;&#9;&#9;c-8.3-2.2-16.9-3.3-25.4-3.3c-54.8,0-99.4,44.6-99.4,99.4c0,9,1.2,18,3.7,26.8c0.2,0.6,0.8,1.1,1.5,1.1h25.9&#10;&#9;&#9;&#9;c2.5-47.3,41.8-85,89.7-85c7.7,0,15.4,1,23,3c3.1-18,18.9-31.4,37.3-31.4c12.4,0,23.7,5.9,30.8,15.9c5-10.8,13.5-19.6,24.2-25&#10;&#9;&#9;&#9;c-2.3-5.4-3.5-11.1-3.5-17c0-23.9,19.5-43.4,43.4-43.4c4.8,0,9.4,0.8,13.9,2.4c0.4,0.1,0.9,0.3,1.3,0.4v-4.4&#10;&#9;&#9;&#9;c6.9-19.1,25.2-32.8,46.7-32.8c17,0,31.9,8.5,40.9,21.5v3.5c0.5-0.4,1-0.7,1.6-1.1c7.4-5,16.2-7.8,25.2-7.8&#10;&#9;&#9;&#9;c24.9,0,45.2,20.3,45.2,45.2c0,9.5-3,18.8-8.6,26.4c15.2,1.4,28.6,10.2,36,23.5c12.6-13.5,30.2-21.2,48.8-21.2&#10;&#9;&#9;&#9;c36.7,0,66.6,29.9,66.6,66.6c0,11.5-3,22.7-8.6,32.7c10.3,6.9,17.9,16.6,22.1,27.8h32.3c0.8,0,1.4-0.5,1.5-1.3&#10;&#9;&#9;&#9;c0.5-3.5,0.8-6.5,0.8-9.4C966.9,908.9,956.2,889.1,938.3,877.1z" transform="matrix(1, 0, 0, 1, 5.684341886080802e-14, 1.4210854715202004e-14)"/><path fill="#EFF0F0" d="M910.2,913.3c5.6-9.9,8.6-21.2,8.6-32.7c0-36.7-29.9-66.6-66.6-66.6c-18.5,0-36.2,7.7-48.8,21.2&#10;&#9;&#9;&#9;c-7.4-13.4-20.9-22.2-36-23.5c5.5-7.7,8.6-17,8.6-26.4c0-24.9-20.3-45.2-45.2-45.2c-9,0-17.8,2.7-25.2,7.8&#10;&#9;&#9;&#9;c-0.5,0.4-1.1,0.7-1.6,1.1v-3.5c-9-13-23.9-21.5-40.9-21.5c-21.5,0-39.8,13.7-46.7,32.8v4.4c-0.4-0.2-0.9-0.3-1.3-0.4&#10;&#9;&#9;&#9;c-4.5-1.5-9.2-2.4-13.9-2.4c-23.9,0-43.4,19.5-43.4,43.4c0,5.9,1.2,11.6,3.5,17c-10.7,5.4-19.2,14.1-24.2,25&#10;&#9;&#9;&#9;c-7.1-10-18.5-15.9-30.8-15.9c-18.4,0-34.2,13.4-37.3,31.4c-7.5-2-15.2-3-23-3c-47.9,0-87.2,37.7-89.7,85h576.1&#10;&#9;&#9;&#9;C928.1,929.9,920.5,920.1,910.2,913.3z" transform="matrix(1, 0, 0, 1, 5.684341886080802e-14, 1.4210854715202004e-14)"/><g transform="matrix(1, 0, 0, 1, 8.526512829121202e-14, 2.1316282072803006e-14)">
				<path fill="#FFFFFF" d="M714.3,266.7H601.7h-4.4l-0.3,0.8c-11.1,30.4-17,67-17,105.6c0,14.9,0.9,29.9,2.7,44.4l12.6,56.4&#10;&#9;&#9;&#9;&#9;&#9;c2.6,7.8,5.5,15,8.6,21.5l0.3,0.7h7.7h35.5c0.6-17.1,3.3-44.9,13-70.2c9.7,25.4,12.3,53.1,12.8,70.2h29.1&#10;&#9;&#9;&#9;&#9;&#9;C752.5,374.1,722.8,287.1,714.3,266.7z"/>
				<path fill="#EBEBEB" d="M726.1,267.5l-0.3-0.8h-4.4h-7.1c8.5,20.4,38.2,107.3-12,229.4h8.9h7.7l0.3-0.7c3-6.4,5.9-13.6,8.6-21.5&#10;&#9;&#9;&#9;&#9;&#9;l0.2,0.1l12.4-56.5c1.8-14.5,2.7-29.5,2.7-44.4C743.1,334.5,737.3,298,726.1,267.5z"/>
			</g><path fill="#EBEBEB" d="M661.5,298.3c-30.2,0-54.9,24.6-54.9,54.8c0,30.3,24.6,54.9,54.9,54.9c30.2,0,54.9-24.6,54.9-54.9&#10;&#9;&#9;&#9;&#9;&#9;C716.4,322.9,691.8,298.3,661.5,298.3z" transform="matrix(1, 0, 0, 1, 1.1368683772161603e-13, 2.842170943040401e-14)"/><path fill="#FF7D70" d="M661.5,302.4c-28,0-50.8,22.8-50.8,50.8c0,28,22.8,50.8,50.8,50.8c28,0,50.8-22.8,50.8-50.8&#10;&#9;&#9;&#9;&#9;&#9;C712.3,325.1,689.5,302.4,661.5,302.4z" transform="matrix(1, 0, 0, 1, 1.1368683772161603e-13, 2.842170943040401e-14)"/><path fill="#A6D9EB" d="M684.7,323.1c5,6.4,8,14.5,8,23.2c0,20.9-17,38-38,38c-8.7,0-16.8-3-23.2-8c7,9,17.8,14.8,30,14.8&#10;&#9;&#9;&#9;&#9;&#9;c20.9,0,38-17,38-38C699.5,340.9,693.7,330.1,684.7,323.1z" transform="matrix(1, 0, 0, 1, 1.1368683772161603e-13, 2.842170943040401e-14)"/><path fill="#B5ECFF" d="M692.7,346.3c0-8.7-3-16.8-8-23.2c-6.4-5-14.5-8-23.2-8c-20.9,0-38,17-38,38c0,8.7,3,16.8,8,23.2&#10;&#9;&#9;&#9;&#9;&#9;c6.4,5,14.5,8,23.2,8C675.7,384.3,692.7,367.3,692.7,346.3z" transform="matrix(1, 0, 0, 1, 1.1368683772161603e-13, 2.842170943040401e-14)"/><path fill="#59CFF0" d="M546.7,449c-2.8,2.5-5.4,7.5-5.7,11.2l-6.6,74.3c-0.2,1.7,0.2,3.2,1.1,4.2c1.3,1.4,3.5,1.6,5.7,0.5&#10;&#9;&#9;&#9;&#9;&#9;l24.2-12.1c3.3-1.7,7.2-5.8,8.6-9.3l14.1-34.4c1.2-3,4.4-7.3,6.9-9.3l0.2-0.1l-12.6-56.4L546.7,449z" transform="matrix(1, 0, 0, 1, 1.1368683772161603e-13, 2.842170943040401e-14)"/><path d="M 674.2999877929688 185.1999969482422 L 661.7999877929688 163.5 L 661.5 163 L 607 257.5 L 706.7999877929688 257.5 Z" fill="#FF7D70" transform="matrix(1, 0, 0, 1, 1.1368683772161603e-13, 2.842170943040401e-14)"/><path d="M 721.4000244140625 266.70001220703125 L 674.2999877929688 185.1999969482422 L 706.7999877929688 257.5 L 607 257.5 L 601.7000122070312 266.70001220703125 Z" fill="#EB7168" transform="matrix(1, 0, 0, 1, 1.1368683772161603e-13, 2.842170943040401e-14)"/><path fill="#A7A9AC" d="M611.9,512.6h35.5c0,0-0.2-4-0.1-10.6l-35.4-2V512.6z" transform="matrix(1, 0, 0, 1, 8.526512829121202e-14, 2.1316282072803006e-14)"/><path fill="#97999C" d="M611.9,496.1v3.9l35.4,2c0-1.8,0.1-3.8,0.1-5.9H611.9z" transform="matrix(1, 0, 0, 1, 8.526512829121202e-14, 2.1316282072803006e-14)"/><path fill="#A7A9AC" d="M673.3,503.5c0,5.7-0.2,9.1-0.2,9.1h38.1v-7L673.3,503.5z" transform="matrix(1, 0, 0, 1, 8.526512829121202e-14, 2.1316282072803006e-14)"/><path fill="#97999C" d="M711.2,496.1h-38.1c0.1,2.8,0.1,5.2,0.1,7.4l37.9,2.2V496.1z" transform="matrix(1, 0, 0, 1, 8.526512829121202e-14, 2.1316282072803006e-14)"/><path fill="#51BDDB" d="M740.4,417.5L728,474.1c2.1,1.7,4.7,4.9,6.2,7.7l13.6-57.9L740.4,417.5z" transform="matrix(1, 0, 0, 1, 1.1368683772161603e-13, 2.842170943040401e-14)"/><path fill="#59CFF0" d="M788.7,534.5l-6.6-74.3c-0.3-3.7-2.9-8.8-5.7-11.2l-28.7-25.1l-13.6,57.9c0.3,0.5,0.6,1.1,0.8,1.6&#10;&#9;&#9;&#9;&#9;&#9;l14.1,34.4c1.4,3.4,5.3,7.6,8.6,9.3l24.2,12.1c2.2,1.1,4.4,0.9,5.7-0.5C788.4,537.7,788.8,536.3,788.7,534.5z" transform="matrix(1, 0, 0, 1, 1.1368683772161603e-13, 2.842170943040401e-14)"/><path fill="#59CFF0" d="M659.4,428.4c-9,24.7-11.5,51.1-12.1,67.7c-0.4,10.1,0,16.5,0,16.5c2.6,9.4,6.9,18.2,12.8,26.2&#10;&#9;&#9;&#9;&#9;&#9;C669.5,495.3,662.5,446,659.4,428.4z" transform="matrix(1, 0, 0, 1, 1.1368683772161603e-13, 2.842170943040401e-14)"/><path fill="#51BDDB" d="M673.2,496.1c-0.5-17.1-3.1-44.9-12.8-70.2c-0.3,0.9-0.6,1.7-0.9,2.6c3.1,17.6,10.1,66.9,0.7,110.4&#10;&#9;&#9;&#9;&#9;&#9;c0.2,0.2,0.3,0.4,0.5,0.6l1,1.4l1-1.4c0.3-0.4,6.7-9.9,10.6-26.7C673.1,512.6,673.5,506.2,673.2,496.1z" transform="matrix(1, 0, 0, 1, 1.1368683772161603e-13, 2.842170943040401e-14)"/><path d="M 163.100006 1106.300049 H 245.300003 V 1400.000061 H 163.100006 V 1106.300049 Z" fill="#DBB47A" transform="matrix(1, 0, 0, 1, 5.684341886080802e-14, 1.4210854715202004e-14)"/><path d="M 245.300003 1106.300049 H 292.300003 V 1400.000061 H 245.300003 V 1106.300049 Z" fill="#CCA871" transform="matrix(1, 0, 0, 1, 5.684341886080802e-14, 1.4210854715202004e-14)"/><path d="M 899.900024 1106.300049 H 982.100021 V 1400.000061 H 899.900024 V 1106.300049 Z" fill="#DBB47A" transform="matrix(1, 0, 0, 1, 5.684341886080802e-14, 1.4210854715202004e-14)"/><path d="M 982.099976 1106.300049 H 1029.099976 V 1400.000061 H 982.099976 V 1106.300049 Z" fill="#CCA871" transform="matrix(1, 0, 0, 1, 5.684341886080802e-14, 1.4210854715202004e-14)"/><path d="M 1315.5 1106.300049 H 1397.699997 V 1400.000061 H 1315.5 V 1106.300049 Z" fill="#CCA871" transform="matrix(1, 0, 0, 1, 5.684341886080802e-14, 1.4210854715202004e-14)"/><path d="M 1397.699951 1106.300049 H 1444.699951 V 1400.000061 H 1397.699951 V 1106.300049 Z" fill="#B89865" transform="matrix(1, 0, 0, 1, 5.684341886080802e-14, 1.4210854715202004e-14)"/><path d="M 578.700012 1106.300049 H 660.900009 V 1400.000061 H 578.700012 V 1106.300049 Z" fill="#CCA871" transform="matrix(1, 0, 0, 1, 5.684341886080802e-14, 1.4210854715202004e-14)"/><path d="M 660.900024 1106.300049 H 707.900024 V 1400.000061 H 660.900024 V 1106.300049 Z" fill="#B89865" transform="matrix(1, 0, 0, 1, 5.684341886080802e-14, 1.4210854715202004e-14)"/>
</svg>