<?xml version="1.0" encoding="utf-8"?>
<svg id="master-artboard" viewBox="0 0 1500 980" version="1.1" xmlns="http://www.w3.org/2000/svg" x="0px" y="0px" enable-background="new 0 0 1400 980" width="1500px" height="980px" xmlns:xlink="http://www.w3.org/1999/xlink"><rect id="ee-background" x="0" y="0" width="1500" height="980" style="fill: white; fill-opacity: 0; pointer-events: none;"/>
<defs>
		<path d="M 0 0 H 1400 V 980 H 0 V 0 Z" id="SVGID_1_"/>
	</defs><clipPath id="SVGID_2_">
		<use overflow="visible" xlink:href="#SVGID_1_"/>
	</clipPath><linearGradient id="SVGID_3_" gradientUnits="userSpaceOnUse" x1="1417.5573" y1="-64.3514" x2="1417.5573" y2="320.1489">
			<stop offset="0" style="stop-color:#BEC0C2"/>
			<stop offset="1" style="stop-color:#FFFFFF"/>
			
			
			
		</linearGradient><path d="M -9.5 587.099976 H 1406.599976 V 623.199974 H -9.5 V 587.099976 Z" clip-path="url(#SVGID_2_)" fill="#777A40" transform="matrix(1.0664770745121994, 0, 0, 1.0664770745121994, 12.95916511191863, -49.19415058293708)"/><path d="M 448.899994 750.700012 H 472.999994 V 1101.100006 H 448.899994 V 750.700012 Z" clip-path="url(#SVGID_2_)" fill="#65220D" transform="matrix(1, 0, 0, 1, 2.842170943040401e-14, 7.105427357601002e-15)"/><path d="M 1066.699951 216.300003 H 1138.599953 V 307.700005 H 1066.699951 V 216.300003 Z" fill="#4A787E" transform="matrix(1, 0, 0, 1, 5.684341886080802e-14, 1.4210854715202004e-14)"/><path d="M1076.8,230.1v-6.6h2.1c0.8,0,1.3,0,1.6,0.1c0.4,0.1,0.7,0.3,0.9,0.6c0.3,0.3,0.4,0.8,0.4,1.3c0,0.4-0.1,0.7-0.2,1&#10;&#9;&#9;&#9;&#9;c-0.1,0.3-0.3,0.5-0.6,0.7c-0.2,0.2-0.5,0.3-0.7,0.3c-0.3,0.1-0.8,0.1-1.4,0.1h-0.9v2.5H1076.8z M1078.1,224.6v1.9h0.7&#10;&#9;&#9;&#9;&#9;c0.5,0,0.9,0,1.1-0.1c0.2-0.1,0.3-0.2,0.4-0.3c0.1-0.1,0.2-0.3,0.2-0.5c0-0.2-0.1-0.4-0.2-0.6c-0.1-0.2-0.3-0.3-0.5-0.3&#10;&#9;&#9;&#9;&#9;c-0.2,0-0.5,0-1,0H1078.1z" transform="matrix(1, 0, 0, 1, 8.526512829121202e-14, 2.1316282072803006e-14)"/><path d="M1082.9,230.1v-6.6h2.8c0.7,0,1.2,0.1,1.5,0.2c0.3,0.1,0.6,0.3,0.8,0.6c0.2,0.3,0.3,0.6,0.3,1c0,0.5-0.1,0.9-0.4,1.2&#10;&#9;&#9;&#9;&#9;c-0.3,0.3-0.7,0.5-1.3,0.6c0.3,0.2,0.5,0.4,0.7,0.6c0.2,0.2,0.4,0.6,0.8,1.1l0.8,1.3h-1.6l-1-1.4c-0.3-0.5-0.6-0.8-0.7-1&#10;&#9;&#9;&#9;&#9;c-0.1-0.1-0.3-0.2-0.4-0.3c-0.1,0-0.4-0.1-0.7-0.1h-0.3v2.8H1082.9z M1084.3,226.2h1c0.6,0,1,0,1.2-0.1c0.2-0.1,0.3-0.1,0.4-0.3&#10;&#9;&#9;&#9;&#9;c0.1-0.1,0.1-0.3,0.1-0.5c0-0.2-0.1-0.4-0.2-0.5c-0.1-0.1-0.3-0.2-0.5-0.3c-0.1,0-0.4,0-1,0h-1V226.2z" transform="matrix(1, 0, 0, 1, 8.526512829121202e-14, 2.1316282072803006e-14)"/><path d="M1089.5,230.1v-6.6h1.3v6.6H1089.5z" transform="matrix(1, 0, 0, 1, 8.526512829121202e-14, 2.1316282072803006e-14)"/><path d="M1096.4,227.6l1.3,0.4c-0.2,0.7-0.5,1.3-1,1.6c-0.5,0.3-1,0.5-1.8,0.5c-0.9,0-1.6-0.3-2.2-0.9c-0.6-0.6-0.8-1.4-0.8-2.5&#10;&#9;&#9;&#9;&#9;c0-1.1,0.3-2,0.8-2.6c0.6-0.6,1.3-0.9,2.2-0.9c0.8,0,1.5,0.2,2,0.7c0.3,0.3,0.5,0.7,0.7,1.2l-1.3,0.3c-0.1-0.3-0.2-0.6-0.5-0.8&#10;&#9;&#9;&#9;&#9;c-0.2-0.2-0.5-0.3-0.9-0.3c-0.5,0-0.9,0.2-1.2,0.5c-0.3,0.4-0.5,0.9-0.5,1.7c0,0.8,0.2,1.4,0.4,1.8c0.3,0.4,0.7,0.5,1.2,0.5&#10;&#9;&#9;&#9;&#9;c0.4,0,0.7-0.1,0.9-0.3C1096.1,228.5,1096.3,228.1,1096.4,227.6z" transform="matrix(1, 0, 0, 1, 8.526512829121202e-14, 2.1316282072803006e-14)"/><path d="M1098.8,230.1v-6.6h4.9v1.1h-3.6v1.5h3.3v1.1h-3.3v1.8h3.7v1.1H1098.8z" transform="matrix(1, 0, 0, 1, 8.526512829121202e-14, 2.1316282072803006e-14)"/><path d="M1107.5,230.1v-6.5h1.3v5.4h3.3v1.1H1107.5z" transform="matrix(1, 0, 0, 1, 8.526512829121202e-14, 2.1316282072803006e-14)"/><path d="M1113.1,230.1v-6.6h1.3v6.6H1113.1z" transform="matrix(1, 0, 0, 1, 8.526512829121202e-14, 2.1316282072803006e-14)"/><path d="M1115.4,227.9l1.3-0.1c0.1,0.4,0.2,0.8,0.5,1c0.2,0.2,0.6,0.3,1,0.3c0.4,0,0.8-0.1,1-0.3c0.2-0.2,0.3-0.4,0.3-0.6&#10;&#9;&#9;&#9;&#9;c0-0.2,0-0.3-0.1-0.4c-0.1-0.1-0.3-0.2-0.5-0.3c-0.2-0.1-0.5-0.1-1.1-0.3c-0.7-0.2-1.2-0.4-1.5-0.7c-0.4-0.4-0.6-0.8-0.6-1.3&#10;&#9;&#9;&#9;&#9;c0-0.3,0.1-0.6,0.3-0.9c0.2-0.3,0.5-0.5,0.8-0.7c0.4-0.2,0.8-0.2,1.3-0.2c0.8,0,1.5,0.2,1.9,0.5c0.4,0.4,0.6,0.8,0.7,1.5&#10;&#9;&#9;&#9;&#9;l-1.3,0.1c-0.1-0.3-0.2-0.6-0.4-0.7c-0.2-0.1-0.5-0.2-0.8-0.2c-0.4,0-0.7,0.1-0.9,0.2c-0.1,0.1-0.2,0.2-0.2,0.4&#10;&#9;&#9;&#9;&#9;c0,0.2,0.1,0.3,0.2,0.4c0.2,0.1,0.6,0.3,1.2,0.4c0.6,0.2,1.1,0.3,1.4,0.5c0.3,0.2,0.6,0.4,0.7,0.7c0.2,0.3,0.3,0.6,0.3,1.1&#10;&#9;&#9;&#9;&#9;c0,0.4-0.1,0.7-0.3,1.1c-0.2,0.3-0.5,0.6-0.9,0.7c-0.4,0.2-0.9,0.2-1.4,0.2c-0.8,0-1.5-0.2-1.9-0.6&#10;&#9;&#9;&#9;&#9;C1115.7,229.2,1115.4,228.6,1115.4,227.9z" transform="matrix(1, 0, 0, 1, 8.526512829121202e-14, 2.1316282072803006e-14)"/><path d="M1123.3,230.1v-5.5h-2v-1.1h5.2v1.1h-2v5.5H1123.3z" transform="matrix(1, 0, 0, 1, 8.526512829121202e-14, 2.1316282072803006e-14)"/><path d="M 1076.099976 237.199997 H 1127.399975 V 241.199997 H 1076.099976 V 237.199997 Z" transform="matrix(1, 0, 0, 1, 5.684341886080802e-14, 1.4210854715202004e-14)"/><path d="M 1076.099976 242.899994 H 1127.399975 V 246.899994 H 1076.099976 V 242.899994 Z" transform="matrix(1, 0, 0, 1, 5.684341886080802e-14, 1.4210854715202004e-14)"/><path d="M 1076.099976 248.600006 H 1127.399975 V 252.600006 H 1076.099976 V 248.600006 Z" transform="matrix(1, 0, 0, 1, 5.684341886080802e-14, 1.4210854715202004e-14)"/><path d="M 1076.099976 254.300003 H 1127.399975 V 258.300003 H 1076.099976 V 254.300003 Z" transform="matrix(1, 0, 0, 1, 5.684341886080802e-14, 1.4210854715202004e-14)"/><path d="M 1076.099976 260 H 1127.399975 V 264 H 1076.099976 V 260 Z" transform="matrix(1, 0, 0, 1, 5.684341886080802e-14, 1.4210854715202004e-14)"/><path d="M 1076.099976 265.700012 H 1127.399975 V 269.700012 H 1076.099976 V 265.700012 Z" transform="matrix(1, 0, 0, 1, 5.684341886080802e-14, 1.4210854715202004e-14)"/><path d="M 1076.099976 271.399994 H 1127.399975 V 275.399994 H 1076.099976 V 271.399994 Z" transform="matrix(1, 0, 0, 1, 5.684341886080802e-14, 1.4210854715202004e-14)"/><path d="M 1076.099976 277.100006 H 1127.399975 V 281.100006 H 1076.099976 V 277.100006 Z" transform="matrix(1, 0, 0, 1, 5.684341886080802e-14, 1.4210854715202004e-14)"/><path d="M 1076.099976 282.799988 H 1127.399975 V 286.799988 H 1076.099976 V 282.799988 Z" transform="matrix(1, 0, 0, 1, 5.684341886080802e-14, 1.4210854715202004e-14)"/><path d="M 1076.099976 288.5 H 1127.399975 V 292.5 H 1076.099976 V 288.5 Z" transform="matrix(1, 0, 0, 1, 5.684341886080802e-14, 1.4210854715202004e-14)"/><path d="M 1076.099976 294.200012 H 1127.399975 V 298.200012 H 1076.099976 V 294.200012 Z" transform="matrix(1, 0, 0, 1, 5.684341886080802e-14, 1.4210854715202004e-14)"/><path d="M 949.400024 216.300003 H 1021.300026 V 307.700005 H 949.400024 V 216.300003 Z" fill="#4A787E" transform="matrix(1, 0, 0, 1, 5.684341886080802e-14, 1.4210854715202004e-14)"/><path d="M959.5,230.1v-6.6h2.1c0.8,0,1.3,0,1.6,0.1c0.4,0.1,0.7,0.3,0.9,0.6c0.3,0.3,0.4,0.8,0.4,1.3c0,0.4-0.1,0.7-0.2,1&#10;&#9;&#9;&#9;&#9;c-0.1,0.3-0.3,0.5-0.6,0.7c-0.2,0.2-0.5,0.3-0.7,0.3c-0.3,0.1-0.8,0.1-1.4,0.1h-0.9v2.5H959.5z M960.9,224.6v1.9h0.7&#10;&#9;&#9;&#9;&#9;c0.5,0,0.9,0,1.1-0.1c0.2-0.1,0.3-0.2,0.4-0.3c0.1-0.1,0.2-0.3,0.2-0.5c0-0.2-0.1-0.4-0.2-0.6c-0.1-0.2-0.3-0.3-0.5-0.3&#10;&#9;&#9;&#9;&#9;c-0.2,0-0.5,0-1,0H960.9z" transform="matrix(1, 0, 0, 1, 8.526512829121202e-14, 2.1316282072803006e-14)"/><path d="M965.7,230.1v-6.6h2.8c0.7,0,1.2,0.1,1.5,0.2c0.3,0.1,0.6,0.3,0.8,0.6c0.2,0.3,0.3,0.6,0.3,1c0,0.5-0.1,0.9-0.4,1.2&#10;&#9;&#9;&#9;&#9;c-0.3,0.3-0.7,0.5-1.3,0.6c0.3,0.2,0.5,0.4,0.7,0.6c0.2,0.2,0.4,0.6,0.8,1.1l0.8,1.3H970l-1-1.4c-0.3-0.5-0.6-0.8-0.7-1&#10;&#9;&#9;&#9;&#9;c-0.1-0.1-0.3-0.2-0.4-0.3c-0.1,0-0.4-0.1-0.7-0.1H967v2.8H965.7z M967,226.2h1c0.6,0,1,0,1.2-0.1s0.3-0.1,0.4-0.3&#10;&#9;&#9;&#9;&#9;c0.1-0.1,0.1-0.3,0.1-0.5c0-0.2-0.1-0.4-0.2-0.5c-0.1-0.1-0.3-0.2-0.5-0.3c-0.1,0-0.4,0-1,0h-1V226.2z" transform="matrix(1, 0, 0, 1, 8.526512829121202e-14, 2.1316282072803006e-14)"/><path d="M972.3,230.1v-6.6h1.3v6.6H972.3z" transform="matrix(1, 0, 0, 1, 8.526512829121202e-14, 2.1316282072803006e-14)"/><path d="M979.1,227.6l1.3,0.4c-0.2,0.7-0.5,1.3-1,1.6c-0.5,0.3-1,0.5-1.8,0.5c-0.9,0-1.6-0.3-2.2-0.9c-0.6-0.6-0.8-1.4-0.8-2.5&#10;&#9;&#9;&#9;&#9;c0-1.1,0.3-2,0.8-2.6c0.6-0.6,1.3-0.9,2.2-0.9c0.8,0,1.5,0.2,2,0.7c0.3,0.3,0.5,0.7,0.7,1.2l-1.3,0.3c-0.1-0.3-0.2-0.6-0.5-0.8&#10;&#9;&#9;&#9;&#9;c-0.2-0.2-0.5-0.3-0.9-0.3c-0.5,0-0.9,0.2-1.2,0.5c-0.3,0.4-0.5,0.9-0.5,1.7c0,0.8,0.2,1.4,0.4,1.8c0.3,0.4,0.7,0.5,1.2,0.5&#10;&#9;&#9;&#9;&#9;c0.4,0,0.7-0.1,0.9-0.3C978.8,228.5,979,228.1,979.1,227.6z" transform="matrix(1, 0, 0, 1, 8.526512829121202e-14, 2.1316282072803006e-14)"/><path d="M981.6,230.1v-6.6h4.9v1.1h-3.6v1.5h3.3v1.1h-3.3v1.8h3.7v1.1H981.6z" transform="matrix(1, 0, 0, 1, 8.526512829121202e-14, 2.1316282072803006e-14)"/><path d="M990.3,230.1v-6.5h1.3v5.4h3.3v1.1H990.3z" transform="matrix(1, 0, 0, 1, 8.526512829121202e-14, 2.1316282072803006e-14)"/><path d="M995.9,230.1v-6.6h1.3v6.6H995.9z" transform="matrix(1, 0, 0, 1, 8.526512829121202e-14, 2.1316282072803006e-14)"/><path d="M998.1,227.9l1.3-0.1c0.1,0.4,0.2,0.8,0.5,1c0.2,0.2,0.6,0.3,1,0.3c0.4,0,0.8-0.1,1-0.3c0.2-0.2,0.3-0.4,0.3-0.6&#10;&#9;&#9;&#9;&#9;c0-0.2,0-0.3-0.1-0.4c-0.1-0.1-0.3-0.2-0.5-0.3c-0.2-0.1-0.5-0.1-1.1-0.3c-0.7-0.2-1.2-0.4-1.5-0.7c-0.4-0.4-0.6-0.8-0.6-1.3&#10;&#9;&#9;&#9;&#9;c0-0.3,0.1-0.6,0.3-0.9c0.2-0.3,0.5-0.5,0.8-0.7c0.4-0.2,0.8-0.2,1.3-0.2c0.8,0,1.5,0.2,1.9,0.5c0.4,0.4,0.6,0.8,0.7,1.5&#10;&#9;&#9;&#9;&#9;l-1.3,0.1c-0.1-0.3-0.2-0.6-0.4-0.7c-0.2-0.1-0.5-0.2-0.8-0.2c-0.4,0-0.7,0.1-0.9,0.2c-0.1,0.1-0.2,0.2-0.2,0.4&#10;&#9;&#9;&#9;&#9;c0,0.2,0.1,0.3,0.2,0.4c0.2,0.1,0.6,0.3,1.2,0.4c0.6,0.2,1.1,0.3,1.4,0.5s0.6,0.4,0.7,0.7c0.2,0.3,0.3,0.6,0.3,1.1&#10;&#9;&#9;&#9;&#9;c0,0.4-0.1,0.7-0.3,1.1c-0.2,0.3-0.5,0.6-0.9,0.7c-0.4,0.2-0.9,0.2-1.4,0.2c-0.8,0-1.5-0.2-1.9-0.6&#10;&#9;&#9;&#9;&#9;C998.5,229.2,998.2,228.6,998.1,227.9z" transform="matrix(1, 0, 0, 1, 8.526512829121202e-14, 2.1316282072803006e-14)"/><path d="M1006.1,230.1v-5.5h-2v-1.1h5.2v1.1h-2v5.5H1006.1z" transform="matrix(1, 0, 0, 1, 8.526512829121202e-14, 2.1316282072803006e-14)"/><path d="M 958.900024 237.199997 H 1010.200024 V 241.199997 H 958.900024 V 237.199997 Z" transform="matrix(1, 0, 0, 1, 5.684341886080802e-14, 1.4210854715202004e-14)"/><path d="M 958.900024 242.899994 H 1010.200024 V 246.899994 H 958.900024 V 242.899994 Z" transform="matrix(1, 0, 0, 1, 5.684341886080802e-14, 1.4210854715202004e-14)"/><path d="M 958.900024 248.600006 H 1010.200024 V 252.600006 H 958.900024 V 248.600006 Z" transform="matrix(1, 0, 0, 1, 5.684341886080802e-14, 1.4210854715202004e-14)"/><path d="M 958.900024 254.300003 H 1010.200024 V 258.300003 H 958.900024 V 254.300003 Z" transform="matrix(1, 0, 0, 1, 5.684341886080802e-14, 1.4210854715202004e-14)"/><path d="M 958.900024 260 H 1010.200024 V 264 H 958.900024 V 260 Z" transform="matrix(1, 0, 0, 1, 5.684341886080802e-14, 1.4210854715202004e-14)"/><path d="M 958.900024 265.700012 H 1010.200024 V 269.700012 H 958.900024 V 265.700012 Z" transform="matrix(1, 0, 0, 1, 5.684341886080802e-14, 1.4210854715202004e-14)"/><path d="M 958.900024 271.399994 H 1010.200024 V 275.399994 H 958.900024 V 271.399994 Z" transform="matrix(1, 0, 0, 1, 5.684341886080802e-14, 1.4210854715202004e-14)"/><path d="M 958.900024 277.100006 H 1010.200024 V 281.100006 H 958.900024 V 277.100006 Z" transform="matrix(1, 0, 0, 1, 5.684341886080802e-14, 1.4210854715202004e-14)"/><path d="M 958.900024 282.799988 H 1010.200024 V 286.799988 H 958.900024 V 282.799988 Z" transform="matrix(1, 0, 0, 1, 5.684341886080802e-14, 1.4210854715202004e-14)"/><path d="M 958.900024 288.5 H 1010.200024 V 292.5 H 958.900024 V 288.5 Z" transform="matrix(1, 0, 0, 1, 5.684341886080802e-14, 1.4210854715202004e-14)"/><path d="M 958.900024 294.200012 H 1010.200024 V 298.200012 H 958.900024 V 294.200012 Z" transform="matrix(1, 0, 0, 1, 5.684341886080802e-14, 1.4210854715202004e-14)"/><g transform="matrix(1, 0, 0, 1, 21.293184368976085, -7.844857399096419)">
			<path d="M 147 245.600006 H 313.699997 V 621.100006 H 147 V 245.600006 Z" fill="#A49F9F"/>
			<path d="M 156.5 255.699997 H 304.199997 V 366.5 H 156.5 V 255.699997 Z" fill="#F8971F"/>
			<path d="M 156.5 376.5 H 304.199997 V 487.300003 H 156.5 V 376.5 Z" fill="#F8971F"/>
			<path d="M 156.5 497.299988 H 304.199997 V 608.099991 H 156.5 V 497.299988 Z" fill="#F8971F"/>
			<path d="M 156.5 255.699997 H 304.199997 V 271.299997 H 156.5 V 255.699997 Z" fill="#DC871B"/>
			<path d="M 156.5 255.699997 H 304.199997 V 260.399997 H 156.5 V 255.699997 Z" fill="#744400"/>
			<path d="M 156.5 376.5 H 304.199997 V 392.1 H 156.5 V 376.5 Z" fill="#DC871B"/>
			<path d="M 156.5 376.5 H 304.199997 V 381.2 H 156.5 V 376.5 Z" fill="#744400"/>
			<path d="M 156.5 497.299988 H 304.199997 V 512.899988 H 156.5 V 497.299988 Z" fill="#DC871B"/>
			<path d="M 156.5 497.299988 H 304.199997 V 501.999988 H 156.5 V 497.299988 Z" fill="#744400"/>
			<g>
				<path fill="#F3EBF3" d="M242.6,279.2h-24.5c-0.8,0-1.5,0.5-1.5,1v8.9c0,0.6,0.7,1,1.5,1h24.5c0.8,0,1.5-0.5,1.5-1v-8.9&#10;&#9;&#9;&#9;&#9;&#9;C244.1,279.7,243.4,279.2,242.6,279.2z"/>
				<path fill="#744400" d="M242.6,290.6h-24.5c-1.1,0-1.9-0.6-1.9-1.4v-8.9c0-0.8,0.8-1.4,1.9-1.4h24.5c1.1,0,1.9,0.6,1.9,1.4v8.9&#10;&#9;&#9;&#9;&#9;&#9;C244.5,289.9,243.6,290.6,242.6,290.6z M218.1,279.6c-0.6,0-1.1,0.3-1.1,0.6v8.9c0,0.3,0.5,0.6,1.1,0.6h24.5&#10;&#9;&#9;&#9;&#9;&#9;c0.6,0,1.1-0.3,1.1-0.6v-8.9c0-0.3-0.4-0.6-1.1-0.6H218.1z"/>
			</g>
			<g>
				<path fill="#F3EBF3" d="M242.6,399.5h-24.5c-0.8,0-1.5,0.5-1.5,1v8.9c0,0.6,0.7,1,1.5,1h24.5c0.8,0,1.5-0.5,1.5-1v-8.9&#10;&#9;&#9;&#9;&#9;&#9;C244.1,399.9,243.4,399.5,242.6,399.5z"/>
				<path fill="#744400" d="M242.6,410.9h-24.5c-1.1,0-1.9-0.6-1.9-1.4v-8.9c0-0.8,0.8-1.4,1.9-1.4h24.5c1.1,0,1.9,0.6,1.9,1.4v8.9&#10;&#9;&#9;&#9;&#9;&#9;C244.5,410.2,243.6,410.9,242.6,410.9z M218.1,399.9c-0.6,0-1.1,0.3-1.1,0.6v8.9c0,0.3,0.5,0.6,1.1,0.6h24.5&#10;&#9;&#9;&#9;&#9;&#9;c0.6,0,1.1-0.3,1.1-0.6v-8.9c0-0.3-0.4-0.6-1.1-0.6H218.1z"/>
			</g>
			<g>
				<path fill="#F3EBF3" d="M242.6,519.7h-24.5c-0.8,0-1.5,0.5-1.5,1v8.9c0,0.6,0.7,1,1.5,1h24.5c0.8,0,1.5-0.5,1.5-1v-8.9&#10;&#9;&#9;&#9;&#9;&#9;C244.1,520.2,243.4,519.7,242.6,519.7z"/>
				<path fill="#744400" d="M242.6,531.1h-24.5c-1.1,0-1.9-0.6-1.9-1.4v-8.9c0-0.8,0.8-1.4,1.9-1.4h24.5c1.1,0,1.9,0.6,1.9,1.4v8.9&#10;&#9;&#9;&#9;&#9;&#9;C244.5,530.5,243.6,531.1,242.6,531.1z M218.1,520.2c-0.6,0-1.1,0.3-1.1,0.6v8.9c0,0.3,0.4,0.6,1.1,0.6h24.5&#10;&#9;&#9;&#9;&#9;&#9;c0.6,0,1.1-0.3,1.1-0.6v-8.9c0-0.3-0.4-0.6-1.1-0.6H218.1z"/>
			</g>
		</g><path d="M -19.700001 245.600006 H 146.999996 V 621.100006 H -19.700001 V 245.600006 Z" fill="#A49F9F" transform="matrix(1, 0, 0, 1, 21.293184368976142, -7.844857399096405)"/><path d="M -10.3 255.699997 H 137.399997 V 366.5 H -10.3 V 255.699997 Z" fill="#F8971F" transform="matrix(1, 0, 0, 1, 21.293184368976142, -7.844857399096405)"/><path d="M -10.3 376.5 H 137.399997 V 487.300003 H -10.3 V 376.5 Z" fill="#F8971F" transform="matrix(1, 0, 0, 1, 21.293184368976142, -7.844857399096405)"/><path d="M -10.3 497.299988 H 137.399997 V 608.099991 H -10.3 V 497.299988 Z" fill="#F8971F" transform="matrix(1, 0, 0, 1, 21.293184368976142, -7.844857399096405)"/><path d="M -10.3 255.699997 H 137.399997 V 271.299997 H -10.3 V 255.699997 Z" fill="#DC871B" transform="matrix(1, 0, 0, 1, 21.293184368976142, -7.844857399096405)"/><path d="M -10.3 255.699997 H 137.399997 V 260.399997 H -10.3 V 255.699997 Z" fill="#744400" transform="matrix(1, 0, 0, 1, 21.293184368976142, -7.844857399096405)"/><path d="M -10.3 376.5 H 137.399997 V 392.1 H -10.3 V 376.5 Z" fill="#DC871B" transform="matrix(1, 0, 0, 1, 21.293184368976142, -7.844857399096405)"/><path d="M -10.3 376.5 H 137.399997 V 381.2 H -10.3 V 376.5 Z" fill="#744400" transform="matrix(1, 0, 0, 1, 21.293184368976142, -7.844857399096405)"/><path d="M -10.3 497.299988 H 137.399997 V 512.899988 H -10.3 V 497.299988 Z" fill="#DC871B" transform="matrix(1, 0, 0, 1, 21.293184368976142, -7.844857399096405)"/><path d="M -10.3 497.299988 H 137.399997 V 501.999988 H -10.3 V 497.299988 Z" fill="#744400" transform="matrix(1, 0, 0, 1, 21.293184368976142, -7.844857399096405)"/><path fill="#F3EBF3" d="M75.8,279.2H51.4c-0.8,0-1.5,0.5-1.5,1v8.9c0,0.6,0.7,1,1.5,1h24.5c0.8,0,1.5-0.5,1.5-1v-8.9&#10;&#9;&#9;&#9;&#9;&#9;C77.3,279.7,76.7,279.2,75.8,279.2z" transform="matrix(1, 0, 0, 1, 21.293184368976142, -7.844857399096405)"/><path fill="#744400" d="M75.8,290.6H51.4c-1.1,0-1.9-0.6-1.9-1.4v-8.9c0-0.8,0.8-1.4,1.9-1.4h24.5c1.1,0,1.9,0.6,1.9,1.4v8.9&#10;&#9;&#9;&#9;&#9;&#9;C77.8,289.9,76.9,290.6,75.8,290.6z M51.4,279.6c-0.6,0-1.1,0.3-1.1,0.6v8.9c0,0.3,0.5,0.6,1.1,0.6h24.5c0.6,0,1.1-0.3,1.1-0.6&#10;&#9;&#9;&#9;&#9;&#9;v-8.9c0-0.3-0.4-0.6-1.1-0.6H51.4z" transform="matrix(1, 0, 0, 1, 21.293184368976142, -7.844857399096405)"/><path fill="#F3EBF3" d="M75.8,399.5H51.4c-0.8,0-1.5,0.5-1.5,1v8.9c0,0.6,0.7,1,1.5,1h24.5c0.8,0,1.5-0.5,1.5-1v-8.9&#10;&#9;&#9;&#9;&#9;&#9;C77.3,399.9,76.7,399.5,75.8,399.5z" transform="matrix(1, 0, 0, 1, 21.293184368976142, -7.844857399096405)"/><path fill="#744400" d="M75.8,410.9H51.4c-1.1,0-1.9-0.6-1.9-1.4v-8.9c0-0.8,0.8-1.4,1.9-1.4h24.5c1.1,0,1.9,0.6,1.9,1.4v8.9&#10;&#9;&#9;&#9;&#9;&#9;C77.8,410.2,76.9,410.9,75.8,410.9z M51.4,399.9c-0.6,0-1.1,0.3-1.1,0.6v8.9c0,0.3,0.5,0.6,1.1,0.6h24.5c0.6,0,1.1-0.3,1.1-0.6&#10;&#9;&#9;&#9;&#9;&#9;v-8.9c0-0.3-0.4-0.6-1.1-0.6H51.4z" transform="matrix(1, 0, 0, 1, 21.293184368976142, -7.844857399096405)"/><path fill="#F3EBF3" d="M75.8,519.7H51.4c-0.8,0-1.5,0.5-1.5,1v8.9c0,0.6,0.7,1,1.5,1h24.5c0.8,0,1.5-0.5,1.5-1v-8.9&#10;&#9;&#9;&#9;&#9;&#9;C77.3,520.2,76.7,519.7,75.8,519.7z" transform="matrix(1, 0, 0, 1, 21.293184368976142, -7.844857399096405)"/><path fill="#744400" d="M75.8,531.1H51.4c-1.1,0-1.9-0.6-1.9-1.4v-8.9c0-0.8,0.8-1.4,1.9-1.4h24.5c1.1,0,1.9,0.6,1.9,1.4v8.9&#10;&#9;&#9;&#9;&#9;&#9;C77.8,530.5,76.9,531.1,75.8,531.1z M51.4,520.2c-0.6,0-1.1,0.3-1.1,0.6v8.9c0,0.3,0.4,0.6,1.1,0.6h24.5c0.6,0,1.1-0.3,1.1-0.6&#10;&#9;&#9;&#9;&#9;&#9;v-8.9c0-0.3-0.4-0.6-1.1-0.6H51.4z" transform="matrix(1, 0, 0, 1, 21.293184368976142, -7.844857399096405)"/><g transform="matrix(1, 0, 0, 1, 5.684341886080802e-14, 1.4210854715202004e-14)">
			<path fill="#F2A462" d="M848.4,401.3c0,0,1,28,6.1,31.7l-16.9,15.6l-22.5-18.3c0,0,13.7-14,12.3-29H848.4z"/>
			<g>
				<path fill="#F2A462" d="M777,346.7c-1.2,1.3-10.1-7-11.1-8c-5.6-5-11-11.3-11.6-19.1c-0.4-4.6,1.2-10,5-12.9&#10;&#9;&#9;&#9;&#9;&#9;c2.3-1.8,12.7-3.2,14,1c0,0,10.2,32.2,10.2,32.2S777,346.7,777,346.7z"/>
				<path fill="#F2A462" d="M894.6,335.2c1.2,1.3,10.1-7,11.1-8c5.6-5,11-11.3,11.6-19.1c0.4-4.6-1.2-10-5-12.9&#10;&#9;&#9;&#9;&#9;&#9;c-2.3-1.8-12.7-3.2-14,1c0,0-10.2,32.2-10.2,32.2S894.6,335.2,894.6,335.2z"/>
				<path fill="#F0AB70" d="M897.6,252.9h-127c0,0,1.2,17.6,1.2,17.6c1.1,17-1.6,34.1,0.2,51.3c2.8,26.7,10.5,58.6,34.8,74&#10;&#9;&#9;&#9;&#9;&#9;c28.2,17.8,60.9,3.8,75.6-23.4c11.8-21.8,14.8-48,15.2-72.4c0.2-9.8,0-19.7-1.1-29.5L897.6,252.9z"/>
				<path fill="#653313" d="M856.5,246.9c0,0-15.2,20.3-43.2,32c0,0,56.9-13,71.1-26.1c0,0-4.1,7.1-14.2,13c0,0,13.2-1.7,18.8-5.8&#10;&#9;&#9;&#9;&#9;&#9;c0,0,0.8,36.1,8,53.3c0,0,2.1-20.3,7.7-20.3c0,0,10.2-42.2,2.5-53.9c-7.6-11.7-30-29.5-16.3-41.2c0,0-94.5-3.9-105.7,25.4&#10;&#9;&#9;&#9;&#9;&#9;c0,0-3-5.1,0-12.7c0,0-45.7,34-14.7,95.5l5.1-36.6C775.7,269.8,839.8,264.7,856.5,246.9z"/>
				<g>
					<path fill="#653313" d="M837.6,292.6L837.6,292.6c0,2.8,2.5,4.9,5.2,4.4c8.7-1.5,25.8-4.1,31-2.1c0,0-16.7-7.1-31.9-6.7&#10;&#9;&#9;&#9;&#9;&#9;&#9;C839.5,288.2,837.6,290.2,837.6,292.6z"/>
					<path fill="#653313" d="M811.1,295.6L811.1,295.6c0.2,2.8-2.1,5-4.8,4.8c-8.8-0.8-26.1-2.1-31.1,0.3c0,0,16.1-8.3,31.3-9.2&#10;&#9;&#9;&#9;&#9;&#9;&#9;C808.8,291.4,810.9,293.2,811.1,295.6z"/>
					<path fill="#C68E48" d="M822.7,373.9c-7.8,0-13.7-1.4-14.2-1.5l0.5-2c0.2,0.1,24.8,5.9,40.3-6.7c-0.2-1.1-0.4-3.1,1-5l1.6,1.2&#10;&#9;&#9;&#9;&#9;&#9;&#9;c-1.3,1.7-0.5,3.7-0.5,3.7l0.3,0.7l-0.6,0.5C842.5,372.2,831.4,373.9,822.7,373.9z"/>
					<path fill="#C68E48" d="M852.9,366.1c-2.1,0-3.2-1.4-3.3-1.5l1.6-1.3c0.1,0.1,1,1.2,2.9,0.5l0.7,1.9&#10;&#9;&#9;&#9;&#9;&#9;&#9;C854.1,366,853.5,366.1,852.9,366.1z"/>
					<path d="M 868.300025 315.100006 A 6.9 6.9 0 0 1 861.400024 322.000006 A 6.9 6.9 0 0 1 854.500024 315.100006 A 6.9 6.9 0 0 1 861.400024 308.200006 A 6.9 6.9 0 0 1 868.300025 315.100006 Z"/>
					<path d="M 866.800012 312.100006 A 2.6 2.6 0 0 1 864.200012 314.700006 A 2.6 2.6 0 0 1 861.600012 312.100006 A 2.6 2.6 0 0 1 864.200012 309.500006 A 2.6 2.6 0 0 1 866.800012 312.100006 Z" fill="#FFFFFF"/>
					<path d="M 806.100012 319 A 6.9 6.9 0 0 1 799.200012 325.9 A 6.9 6.9 0 0 1 792.300012 319 A 6.9 6.9 0 0 1 799.200012 312.1 A 6.9 6.9 0 0 1 806.100012 319 Z"/>
					<path d="M 804.6 316 A 2.6 2.6 0 0 1 802 318.6 A 2.6 2.6 0 0 1 799.4 316 A 2.6 2.6 0 0 1 802 313.4 A 2.6 2.6 0 0 1 804.6 316 Z" fill="#FFFFFF"/>
					<path fill="#C98F45" d="M831.5,356.7c0,0-0.2,0.1-0.5,0.3c-0.4,0.2-0.9,0.5-1.6,0.7c-0.7,0.3-1.6,0.6-2.6,0.9&#10;&#9;&#9;&#9;&#9;&#9;&#9;c-1,0.3-2.3,0.5-3.6,0.5c-0.3,0-0.7,0-1,0c-0.3,0-0.8-0.1-1.2-0.1c-0.8-0.1-1.6-0.4-2.4-0.8c-1.6-0.7-3-2.2-3.8-3.8&#10;&#9;&#9;&#9;&#9;&#9;&#9;c-0.8-1.7-1.1-3.6-1.1-5.4c0.1-1.9,0.4-3.6,0.8-5.3c0.8-3.4,2-6.5,2.8-9.5c0.8-3,1.5-5.9,2.1-8.4c0.6-2.5,1-4.5,1.2-6&#10;&#9;&#9;&#9;&#9;&#9;&#9;c0.1-0.7,0.2-1.3,0.3-1.7c0.1-0.4,0.1-0.6,0.1-0.6l0.3,0c0,0,0,0.2,0,0.6c0,0.4,0,1-0.1,1.7c-0.1,1.5-0.4,3.6-0.7,6.1&#10;&#9;&#9;&#9;&#9;&#9;&#9;c-0.4,2.5-0.8,5.4-1.4,8.6c-0.6,3.2-1.6,6.4-2.1,9.6c-0.3,1.6-0.5,3.2-0.4,4.7c0.1,1.5,0.5,2.9,1.1,4c0.6,1.1,1.4,2.1,2.4,2.7&#10;&#9;&#9;&#9;&#9;&#9;&#9;c0.5,0.3,1,0.5,1.6,0.7c0.3,0.1,0.5,0.2,0.8,0.2c0.3,0,0.6,0.1,0.9,0.1c2.4,0.3,4.4,0.1,5.9,0c1.5-0.2,2.3-0.3,2.3-0.3&#10;&#9;&#9;&#9;&#9;&#9;&#9;L831.5,356.7z"/>
				</g>
			</g>
		</g><path fill="#F2A462" d="M856.5,426c0,0-5.2-2.9-7.1-11.1c-1.8-8.2-25.4,2.2-25.4,2.2s-2.9,4.5-10.5,8.9c-7.5,4.3,5.1,8.8,5.1,8.8&#10;&#9;&#9;&#9;s1.1,6,3.9,7.2c2.8,1.3,6,3.9,9.8,4.2c3.8,0.3,4.7,2.5,8.6,0c3.9-2.5,4.6-1.5,7.2-5.6s1.8-3.2,3.9-6.3S856.5,426,856.5,426z" transform="matrix(1, 0, 0, 1, 5.684341886080802e-14, 1.4210854715202004e-14)"/><path fill="#F3A353" d="M894,589.1l-4.5,1.6c0,0-0.5,15.6,0,16.8s0.6,6.5,0.8,8.4c0.1,1.9,1.4,7.1,1.4,7.1l10.5-22.1&#10;&#9;&#9;&#9;c0,0,1-7.5,1-7.9c0-0.4,0.5-3-1.5-3C899.5,589.9,894,589.1,894,589.1z" transform="matrix(1, 0, 0, 1, 5.684341886080802e-14, 1.4210854715202004e-14)"/><g transform="matrix(1, 0, 0, 1, 8.526512829121202e-14, 2.1316282072803006e-14)">
				<g>
					<path fill="#F2A462" d="M697.5,437.7l-2.8-6.1v-44.1c0-1.1-1.4-1.6-2.1-0.7c-2.4,3.2-5.9,9.9-5.4,21c0,0-19.4-9.5-30.3-26.8&#10;&#9;&#9;&#9;&#9;&#9;&#9;c-0.8-1.2-2.6-0.4-2.3,1c1.8,7.6,4.9,18.2,9.2,25.1c0,0-5.1,17.6,0,24.4l21.3,6.1l2.4,6.4l8.5,6.8L697.5,437.7z"/>
				</g>
				<g>
					<path fill="#F2A462" d="M649.8,396c5.4,5.6,11.5,9.6,16.6,12.2c0,0,0,0,0,0c2.1,6.6-4.4,9.2-4.4,9.2&#10;&#9;&#9;&#9;&#9;&#9;&#9;c-4.9-5.1-10.1-13.8-13.5-20.1C647.9,396.2,648.9,395.1,649.8,396z"/>
				</g>
				<g>
					<path fill="#F2A462" d="M647.1,410.8c6.5,3.5,13.3,5.3,18.8,6.2c0,0,0,0,0,0c3.6,5.4-2,9.7-2,9.7c-5.9-3.2-12.9-9.5-17.7-14.3&#10;&#9;&#9;&#9;&#9;&#9;&#9;C645.4,411.6,646.1,410.3,647.1,410.8z"/>
				</g>
				<g>
					<path fill="#F2A462" d="M650,423.9c5.6,1,11.3,0.7,15.8-0.1c0,0,0,0,0,0c3.4,3.3-0.6,8.1-0.6,8.1c-5.1-1-11.4-4.1-15.7-6.5&#10;&#9;&#9;&#9;&#9;&#9;&#9;C648.6,424.9,649.1,423.7,650,423.9z"/>
				</g>
			</g><path fill="#D7E264" d="M930.9,516.8c-5.1-30.5-32.9-81.6-32.9-81.6l-41.5-9.1l-21.5,14.9L813.6,426l-33.7,9.5l-6.2,6.8l-8.4,18.3&#10;&#9;&#9;&#9;l-24.8,46.5l12.6,19.5c14.6-9.8,28.4-38.5,28.4-38.5l-2.4,160.2c21,11.9,114.6-3.4,114.6-3.4l-3.5-161.9l23,35.2&#10;&#9;&#9;&#9;c2.7,13.2-19.5,72.1-19.5,72.1l9.4,13.5C934.6,559.8,930.9,516.8,930.9,516.8z" transform="matrix(1, 0, 0, 1, 5.684341886080802e-14, 1.4210854715202004e-14)"/><path d="M 834.7999877929688 447.3999938964844 L 863.2999877929688 427.5 L 856.5 426 L 835.0999755859375 440.8999938964844 L 813.5999755859375 426 L 808.0999755859375 427.6000061035156 Z" fill="#CBBA1B" transform="matrix(1, 0, 0, 1, 5.684341886080802e-14, 1.4210854715202004e-14)"/><path fill="#D5E48C" d="M683.5,438.6l14.2-4.6c17.3,19.4,33.6,40.9,45.6,64c4.6,8.8,9,18.7,9.8,28.6c0.1,0.8-4.4,2.2-4.9,2.3&#10;&#9;&#9;&#9;c-13.8,3.9-21.8-9.9-27.2-20c-8.1-15-16.1-30-24.1-45C692.6,455.8,686.4,447.3,683.5,438.6z" transform="matrix(1, 0, 0, 1, 5.684341886080802e-14, 1.4210854715202004e-14)"/><g transform="matrix(1, 0, 0, 1, 21.293184368976085, -7.844857399096419)">
			
				<path d="M 245.3 178.800003 A 6.8 9.4 0 0 1 238.5 188.200003 A 6.8 9.4 0 0 1 231.7 178.800003 A 6.8 9.4 0 0 1 238.5 169.400003 A 6.8 9.4 0 0 1 245.3 178.800003 Z" transform="matrix(0.9054 0.4246 -0.4246 0.9054 98.5086 -84.3406)" fill="#008339"/>
			<path fill="#08A74B" d="M240.8,184.2c5-6,3.1-11.7,2.3-13.6c-0.2-0.1-0.4-0.2-0.6-0.3c-0.2-0.1-0.4-0.2-0.6-0.2&#10;&#9;&#9;&#9;&#9;c-2,0.5-7.6,2.8-9,10.4l0.3,0.1c1.4-7.7,7.1-9.8,8.9-10.2c-1.2,1.3-5.1,5.7-6.8,11.3l0.3,0.1c1.7-5.6,5.7-10,6.8-11.2&#10;&#9;&#9;&#9;&#9;c-0.2,1.6-1,7.5-4.3,12.4l0.3,0.2c3.2-4.9,4.1-10.7,4.3-12.4c0.8,1.6,2.8,7.4-2.2,13.4L240.8,184.2z"/>
		</g><path d="M 243.900003 191.199997 A 13.6 18.9 0 0 1 230.300003 210.099997 A 13.6 18.9 0 0 1 216.700003 191.199997 A 13.6 18.9 0 0 1 230.300003 172.299997 A 13.6 18.9 0 0 1 243.900003 191.199997 Z" fill="#008339" transform="matrix(1, 0, 0, 1, 21.293184368976142, -7.844857399096405)"/><path fill="#08A74B" d="M239.1,199c4-15.1-4.3-23.9-7.5-26.6c-0.4-0.1-0.9-0.1-1.3-0.1c-0.4,0-0.9,0-1.3,0.1&#10;&#9;&#9;&#9;&#9;c-3.1,2.7-11.5,11.5-7.5,26.6l0.6-0.2c-4-15.1,4.7-23.8,7.5-26.2c-1.1,3.4-4.5,14.7-2.8,26.3l0.6-0.1&#10;&#9;&#9;&#9;&#9;c-1.7-11.7,1.8-23.1,2.8-26.2c1.1,3.1,4.5,14.4,2.8,26.2l0.6,0.1c1.7-11.6-1.7-22.9-2.8-26.3c2.8,2.3,11.5,11,7.5,26.2L239.1,199&#10;&#9;&#9;&#9;&#9;z" transform="matrix(1, 0, 0, 1, 21.293184368976142, -7.844857399096405)"/><path fill="#8F5C25" d="M230.3,198.5h-19.7c-1.1,0-1.9,0.9-1.9,1.9v5.7c0,0.1,0,0.3,0,0.4l8,37.4c0.2,0.9,1,1.5,1.9,1.5h11.8h11.8&#10;&#9;&#9;&#9;c0.9,0,1.7-0.6,1.9-1.5l8-37.4c0-0.1,0-0.3,0-0.4v-5.7c0-1.1-0.9-1.9-1.9-1.9H230.3z" transform="matrix(1, 0, 0, 1, 21.293184368976085, -7.844857399096419)"/><path fill="#6C4414" d="M252,200.4c0-1.1-0.9-1.9-1.9-1.9h-19.7h-19.7c-1.1,0-1.9,0.9-1.9,1.9v5.7c0,0.1,0,0.3,0,0.4h43.2&#10;&#9;&#9;&#9;c0-0.1,0-0.3,0-0.4V200.4z" transform="matrix(1, 0, 0, 1, 21.293184368976085, -7.844857399096419)"/><g transform="matrix(1, 0, 0, 1, 5.684341886080802e-14, 1.4210854715202004e-14)">
			<path d="M 338.899994 170.100006 H 607.299988 V 364.400009 H 338.899994 V 170.100006 Z" fill="#684627"/>
			<g>
				<path d="M 348.399994 176.899994 H 597.799988 V 357.399994 H 348.399994 V 176.899994 Z" fill="#F9F4F9"/>
				<g>
					<path d="M 376.5 193.300003 H 423.5 V 259.800003 H 376.5 V 193.300003 Z" fill="#B5BABD"/>
					<g>
						<path d="M 382.100006 203 H 417.800007 V 203.6 H 382.100006 V 203 Z"/>
						<path d="M 382.100006 207.399994 H 417.800007 V 207.999994 H 382.100006 V 207.399994 Z"/>
						<path d="M 382.100006 211.800003 H 417.800007 V 212.400003 H 382.100006 V 211.800003 Z"/>
						<path d="M 382.100006 216.100006 H 417.800007 V 216.700006 H 382.100006 V 216.100006 Z"/>
						<path d="M 382.100006 220.5 H 417.800007 V 221.1 H 382.100006 V 220.5 Z"/>
						<path d="M 382.100006 224.899994 H 417.800007 V 225.499994 H 382.100006 V 224.899994 Z"/>
						<path d="M 382.100006 229.300003 H 417.800007 V 229.900003 H 382.100006 V 229.300003 Z"/>
						<path d="M 382.100006 233.699997 H 417.800007 V 234.299997 H 382.100006 V 233.699997 Z"/>
						<path d="M 382.100006 238.100006 H 417.800007 V 238.700006 H 382.100006 V 238.100006 Z"/>
						<path d="M 382.100006 242.5 H 417.800007 V 243.1 H 382.100006 V 242.5 Z"/>
						<path d="M 382.100006 246.899994 H 417.800007 V 247.499994 H 382.100006 V 246.899994 Z"/>
						<path d="M 382.100006 251.300003 H 417.800007 V 251.900003 H 382.100006 V 251.300003 Z"/>
					</g>
				</g>
				<g>
					<g>
						<path d="M 375.799988 275.399994 H 422.799988 V 341.899994 H 375.799988 V 275.399994 Z" fill="#B5BABD"/>
						<g>
							<path d="M 381.5 285.100006 H 417.200001 V 285.700006 H 381.5 V 285.100006 Z"/>
							<path d="M 381.5 289.5 H 417.200001 V 290.1 H 381.5 V 289.5 Z"/>
							<path d="M 381.5 293.899994 H 417.200001 V 294.499994 H 381.5 V 293.899994 Z"/>
							<path d="M 381.5 298.299988 H 417.200001 V 298.899988 H 381.5 V 298.299988 Z"/>
							<path d="M 381.5 302.700012 H 417.200001 V 303.300012 H 381.5 V 302.700012 Z"/>
							<path d="M 381.5 307.100006 H 417.200001 V 307.700006 H 381.5 V 307.100006 Z"/>
							<path d="M 381.5 311.399994 H 417.200001 V 311.999994 H 381.5 V 311.399994 Z"/>
							<path d="M 381.5 315.799988 H 417.200001 V 316.399988 H 381.5 V 315.799988 Z"/>
							<path d="M 381.5 320.200012 H 417.200001 V 320.800012 H 381.5 V 320.200012 Z"/>
							<path d="M 381.5 324.600006 H 417.200001 V 325.200006 H 381.5 V 324.600006 Z"/>
							<path d="M 381.5 329 H 417.200001 V 329.6 H 381.5 V 329 Z"/>
							<path d="M 381.5 333.399994 H 417.200001 V 333.999994 H 381.5 V 333.399994 Z"/>
						</g>
					</g>
					<path d="M 425.999988 275.399994 A 3.2 3.2 0 0 1 422.799988 278.599994 A 3.2 3.2 0 0 1 419.599988 275.399994 A 3.2 3.2 0 0 1 422.799988 272.199994 A 3.2 3.2 0 0 1 425.999988 275.399994 Z" fill="#2A9746"/>
					<path d="M 378.999988 275.399994 A 3.2 3.2 0 0 1 375.799988 278.599994 A 3.2 3.2 0 0 1 372.599988 275.399994 A 3.2 3.2 0 0 1 375.799988 272.199994 A 3.2 3.2 0 0 1 378.999988 275.399994 Z" fill="#E5E516"/>
					<path d="M 425.999988 341.899994 A 3.2 3.2 0 0 1 422.799988 345.099994 A 3.2 3.2 0 0 1 419.599988 341.899994 A 3.2 3.2 0 0 1 422.799988 338.699994 A 3.2 3.2 0 0 1 425.999988 341.899994 Z" fill="#E5E516"/>
					<path d="M 378.999988 341.899994 A 3.2 3.2 0 0 1 375.799988 345.099994 A 3.2 3.2 0 0 1 372.599988 341.899994 A 3.2 3.2 0 0 1 375.799988 338.699994 A 3.2 3.2 0 0 1 378.999988 341.899994 Z" fill="#4DC9F3"/>
				</g>
				<g>
					<g>
						<path d="M 448.899994 275.399994 H 495.899994 V 341.899994 H 448.899994 V 275.399994 Z" fill="#B5BABD"/>
						<g>
							<path d="M 454.5 285.100006 H 490.200001 V 285.700006 H 454.5 V 285.100006 Z"/>
							<path d="M 454.5 289.5 H 490.200001 V 290.1 H 454.5 V 289.5 Z"/>
							<path d="M 454.5 293.899994 H 490.200001 V 294.499994 H 454.5 V 293.899994 Z"/>
							<path d="M 454.5 298.299988 H 490.200001 V 298.899988 H 454.5 V 298.299988 Z"/>
							<path d="M 454.5 302.700012 H 490.200001 V 303.300012 H 454.5 V 302.700012 Z"/>
							<path d="M 454.5 307.100006 H 490.200001 V 307.700006 H 454.5 V 307.100006 Z"/>
							<path d="M 454.5 311.399994 H 490.200001 V 311.999994 H 454.5 V 311.399994 Z"/>
							<path d="M 454.5 315.799988 H 490.200001 V 316.399988 H 454.5 V 315.799988 Z"/>
							<path d="M 454.5 320.200012 H 490.200001 V 320.800012 H 454.5 V 320.200012 Z"/>
							<path d="M 454.5 324.600006 H 490.200001 V 325.200006 H 454.5 V 324.600006 Z"/>
							<path d="M 454.5 329 H 490.200001 V 329.6 H 454.5 V 329 Z"/>
							<path d="M 454.5 333.399994 H 490.200001 V 333.999994 H 454.5 V 333.399994 Z"/>
						</g>
					</g>
					<g>
						<path d="M 499.099994 275.399994 A 3.2 3.2 0 0 1 495.899994 278.599994 A 3.2 3.2 0 0 1 492.699994 275.399994 A 3.2 3.2 0 0 1 495.899994 272.199994 A 3.2 3.2 0 0 1 499.099994 275.399994 Z" fill="#2A9746"/>
						<path d="M 452.099994 275.399994 A 3.2 3.2 0 0 1 448.899994 278.599994 A 3.2 3.2 0 0 1 445.699994 275.399994 A 3.2 3.2 0 0 1 448.899994 272.199994 A 3.2 3.2 0 0 1 452.099994 275.399994 Z" fill="#E5E516"/>
						<path d="M 499.099994 341.899994 A 3.2 3.2 0 0 1 495.899994 345.099994 A 3.2 3.2 0 0 1 492.699994 341.899994 A 3.2 3.2 0 0 1 495.899994 338.699994 A 3.2 3.2 0 0 1 499.099994 341.899994 Z" fill="#E5E516"/>
						<path d="M 452.099994 341.899994 A 3.2 3.2 0 0 1 448.899994 345.099994 A 3.2 3.2 0 0 1 445.699994 341.899994 A 3.2 3.2 0 0 1 448.899994 338.699994 A 3.2 3.2 0 0 1 452.099994 341.899994 Z" fill="#4DC9F3"/>
					</g>
				</g>
				<g>
					<g>
						<path d="M 523.299988 275.399994 H 570.299988 V 341.899994 H 523.299988 V 275.399994 Z" fill="#B5BABD"/>
						<g>
							<path d="M 529 285.100006 H 564.700001 V 285.700006 H 529 V 285.100006 Z"/>
							<path d="M 529 289.5 H 564.700001 V 290.1 H 529 V 289.5 Z"/>
							<path d="M 529 293.899994 H 564.700001 V 294.499994 H 529 V 293.899994 Z"/>
							<path d="M 529 298.299988 H 564.700001 V 298.899988 H 529 V 298.299988 Z"/>
							<path d="M 529 302.700012 H 564.700001 V 303.300012 H 529 V 302.700012 Z"/>
							<path d="M 529 307.100006 H 564.700001 V 307.700006 H 529 V 307.100006 Z"/>
							<path d="M 529 311.399994 H 564.700001 V 311.999994 H 529 V 311.399994 Z"/>
							<path d="M 529 315.799988 H 564.700001 V 316.399988 H 529 V 315.799988 Z"/>
							<path d="M 529 320.200012 H 564.700001 V 320.800012 H 529 V 320.200012 Z"/>
							<path d="M 529 324.600006 H 564.700001 V 325.200006 H 529 V 324.600006 Z"/>
							<path d="M 529 329 H 564.700001 V 329.6 H 529 V 329 Z"/>
							<path d="M 529 333.399994 H 564.700001 V 333.999994 H 529 V 333.399994 Z"/>
						</g>
					</g>
					<path d="M 573.600024 275.399994 A 3.2 3.2 0 0 1 570.400024 278.599994 A 3.2 3.2 0 0 1 567.200024 275.399994 A 3.2 3.2 0 0 1 570.400024 272.199994 A 3.2 3.2 0 0 1 573.600024 275.399994 Z" fill="#2A9746"/>
					<path d="M 526.499988 275.399994 A 3.2 3.2 0 0 1 523.299988 278.599994 A 3.2 3.2 0 0 1 520.099988 275.399994 A 3.2 3.2 0 0 1 523.299988 272.199994 A 3.2 3.2 0 0 1 526.499988 275.399994 Z" fill="#ED2024"/>
					<path d="M 573.600024 341.899994 A 3.2 3.2 0 0 1 570.400024 345.099994 A 3.2 3.2 0 0 1 567.200024 341.899994 A 3.2 3.2 0 0 1 570.400024 338.699994 A 3.2 3.2 0 0 1 573.600024 341.899994 Z" fill="#FDBB53"/>
					<path d="M 526.499988 341.899994 A 3.2 3.2 0 0 1 523.299988 345.099994 A 3.2 3.2 0 0 1 520.099988 341.899994 A 3.2 3.2 0 0 1 523.299988 338.699994 A 3.2 3.2 0 0 1 526.499988 341.899994 Z" fill="#4DC9F3"/>
				</g>
				<g>
					<g>
						<path d="M 448.899994 193.300003 H 495.899994 V 259.800003 H 448.899994 V 193.300003 Z" fill="#B5BABD"/>
						<g>
							<path d="M 454.5 203 H 490.200001 V 203.6 H 454.5 V 203 Z"/>
							<path d="M 454.5 207.399994 H 490.200001 V 207.999994 H 454.5 V 207.399994 Z"/>
							<path d="M 454.5 211.800003 H 490.200001 V 212.400003 H 454.5 V 211.800003 Z"/>
							<path d="M 454.5 216.100006 H 490.200001 V 216.700006 H 454.5 V 216.100006 Z"/>
							<path d="M 454.5 220.5 H 490.200001 V 221.1 H 454.5 V 220.5 Z"/>
							<path d="M 454.5 224.899994 H 490.200001 V 225.499994 H 454.5 V 224.899994 Z"/>
							<path d="M 454.5 229.300003 H 490.200001 V 229.900003 H 454.5 V 229.300003 Z"/>
							<path d="M 454.5 233.699997 H 490.200001 V 234.299997 H 454.5 V 233.699997 Z"/>
							<path d="M 454.5 238.100006 H 490.200001 V 238.700006 H 454.5 V 238.100006 Z"/>
							<path d="M 454.5 242.5 H 490.200001 V 243.1 H 454.5 V 242.5 Z"/>
							<path d="M 454.5 246.899994 H 490.200001 V 247.499994 H 454.5 V 246.899994 Z"/>
							<path d="M 454.5 251.300003 H 490.200001 V 251.900003 H 454.5 V 251.300003 Z"/>
						</g>
					</g>
					<g>
						<path d="M 499.099994 193.300003 A 3.2 3.2 0 0 1 495.899994 196.500003 A 3.2 3.2 0 0 1 492.699994 193.300003 A 3.2 3.2 0 0 1 495.899994 190.100003 A 3.2 3.2 0 0 1 499.099994 193.300003 Z" fill="#2A9746"/>
						<path d="M 452.099994 193.300003 A 3.2 3.2 0 0 1 448.899994 196.500003 A 3.2 3.2 0 0 1 445.699994 193.300003 A 3.2 3.2 0 0 1 448.899994 190.100003 A 3.2 3.2 0 0 1 452.099994 193.300003 Z" fill="#E5E516"/>
						<path d="M 499.099994 259.700012 A 3.2 3.2 0 0 1 495.899994 262.900012 A 3.2 3.2 0 0 1 492.699994 259.700012 A 3.2 3.2 0 0 1 495.899994 256.500012 A 3.2 3.2 0 0 1 499.099994 259.700012 Z" fill="#E5E516"/>
						<path d="M 452.099994 259.700012 A 3.2 3.2 0 0 1 448.899994 262.900012 A 3.2 3.2 0 0 1 445.699994 259.700012 A 3.2 3.2 0 0 1 448.899994 256.500012 A 3.2 3.2 0 0 1 452.099994 259.700012 Z" fill="#4DC9F3"/>
					</g>
				</g>
				<g>
					<g>
						<path d="M 523.299988 193.300003 H 570.299988 V 259.800003 H 523.299988 V 193.300003 Z" fill="#B5BABD"/>
						<g>
							<path d="M 529 203 H 564.700001 V 203.6 H 529 V 203 Z"/>
							<path d="M 529 207.399994 H 564.700001 V 207.999994 H 529 V 207.399994 Z"/>
							<path d="M 529 211.800003 H 564.700001 V 212.400003 H 529 V 211.800003 Z"/>
							<path d="M 529 216.100006 H 564.700001 V 216.700006 H 529 V 216.100006 Z"/>
							<path d="M 529 220.5 H 564.700001 V 221.1 H 529 V 220.5 Z"/>
							<path d="M 529 224.899994 H 564.700001 V 225.499994 H 529 V 224.899994 Z"/>
							<path d="M 529 229.300003 H 564.700001 V 229.900003 H 529 V 229.300003 Z"/>
							<path d="M 529 233.699997 H 564.700001 V 234.299997 H 529 V 233.699997 Z"/>
							<path d="M 529 238.100006 H 564.700001 V 238.700006 H 529 V 238.100006 Z"/>
							<path d="M 529 242.5 H 564.700001 V 243.1 H 529 V 242.5 Z"/>
							<path d="M 529 246.899994 H 564.700001 V 247.499994 H 529 V 246.899994 Z"/>
							<path d="M 529 251.300003 H 564.700001 V 251.900003 H 529 V 251.300003 Z"/>
						</g>
					</g>
					<path d="M 573.600024 193.300003 A 3.2 3.2 0 0 1 570.400024 196.500003 A 3.2 3.2 0 0 1 567.200024 193.300003 A 3.2 3.2 0 0 1 570.400024 190.100003 A 3.2 3.2 0 0 1 573.600024 193.300003 Z" fill="#2A9746"/>
					<path d="M 526.499988 193.300003 A 3.2 3.2 0 0 1 523.299988 196.500003 A 3.2 3.2 0 0 1 520.099988 193.300003 A 3.2 3.2 0 0 1 523.299988 190.100003 A 3.2 3.2 0 0 1 526.499988 193.300003 Z" fill="#2D2E8B"/>
					<path d="M 573.600024 259.700012 A 3.2 3.2 0 0 1 570.400024 262.900012 A 3.2 3.2 0 0 1 567.200024 259.700012 A 3.2 3.2 0 0 1 570.400024 256.500012 A 3.2 3.2 0 0 1 573.600024 259.700012 Z" fill="#E5E516"/>
					<path d="M 526.499988 259.700012 A 3.2 3.2 0 0 1 523.299988 262.900012 A 3.2 3.2 0 0 1 520.099988 259.700012 A 3.2 3.2 0 0 1 523.299988 256.500012 A 3.2 3.2 0 0 1 526.499988 259.700012 Z" fill="#4DC9F3"/>
				</g>
			</g>
		</g><path d="M 380.800006 193.800003 A 3.2 3.2 0 0 1 377.600006 197.000003 A 3.2 3.2 0 0 1 374.400006 193.800003 A 3.2 3.2 0 0 1 377.600006 190.600003 A 3.2 3.2 0 0 1 380.800006 193.800003 Z" fill="#2A9746" transform="matrix(1, 0, 0, 1, 5.684341886080802e-14, 1.4210854715202004e-14)"/><path d="M 380.800006 258.799988 A 3.2 3.2 0 0 1 377.600006 261.999988 A 3.2 3.2 0 0 1 374.400006 258.799988 A 3.2 3.2 0 0 1 377.600006 255.599988 A 3.2 3.2 0 0 1 380.800006 258.799988 Z" fill="#ED2024" transform="matrix(1, 0, 0, 1, 5.684341886080802e-14, 1.4210854715202004e-14)"/><path d="M 426.7 193.800003 A 3.2 3.2 0 0 1 423.5 197.000003 A 3.2 3.2 0 0 1 420.3 193.800003 A 3.2 3.2 0 0 1 423.5 190.600003 A 3.2 3.2 0 0 1 426.7 193.800003 Z" fill="#ED2024" transform="matrix(1, 0, 0, 1, 5.684341886080802e-14, 1.4210854715202004e-14)"/><path d="M 426.7 259.700012 A 3.2 3.2 0 0 1 423.5 262.900012 A 3.2 3.2 0 0 1 420.3 259.700012 A 3.2 3.2 0 0 1 423.5 256.500012 A 3.2 3.2 0 0 1 426.7 259.700012 Z" fill="#E5E516" transform="matrix(1, 0, 0, 1, 5.684341886080802e-14, 1.4210854715202004e-14)"/><g transform="matrix(1, 0, 0, 1, 5.684341886080802e-14, 1.4210854715202004e-14)">
			
				<path d="M 660.200012 676.200012 H 751.100014 V 691.500012 H 660.200012 V 676.200012 Z" transform="matrix(0.9247 0.3808 -0.3808 0.9247 313.606 -217.1742)" fill="#F3F1F2"/>
			
				<path d="M 661.700012 679.900024 H 752.600014 V 680.400024 H 661.700012 V 679.900024 Z" transform="matrix(0.9247 0.3808 -0.3808 0.9247 312.288 -218.0491)" fill="#FFFFFF"/>
			
				<path d="M 661.200012 681.200012 H 752.100014 V 681.700012 H 661.200012 V 681.200012 Z" transform="matrix(0.9247 0.3808 -0.3808 0.9247 312.7531 -217.7403)" fill="#FFFFFF"/>
			
				<path d="M 658.799988 687 H 749.699989 V 687.7 H 658.799988 V 687 Z" transform="matrix(0.9247 0.3808 -0.3808 0.9247 314.8076 -216.3765)" fill="#FFFFFF"/>
		</g><path d="M 660.200012 779.799988 H 751.100014 V 795.099988 H 660.200012 V 779.799988 Z" transform="matrix(0.9247000217437744, 0.3808000385761261, -0.3808000385761261, 0.9247000217437744, 353.0411987304688, -209.3715057373047)" fill="#F3F1F2"/><path d="M 661.700012 783.400024 H 752.600014 V 783.900024 H 661.700012 V 783.400024 Z" transform="matrix(0.9247000217437744, 0.3808000385761261, -0.3808000385761261, 0.9247000217437744, 351.7232055664063, -210.24639892578125)" fill="#FFFFFF"/><path d="M 661.200012 784.799988 H 752.100014 V 785.299988 H 661.200012 V 784.799988 Z" transform="matrix(0.9247000217437744, 0.3808000385761261, -0.3808000385761261, 0.9247000217437744, 352.1883850097657, -209.93760681152344)" fill="#FFFFFF"/><path d="M 658.799988 790.5 H 749.699989 V 791.2 H 658.799988 V 790.5 Z" transform="matrix(0.9247000217437744, 0.3808000385761261, -0.3808000385761261, 0.9247000217437744, 354.24288940429693, -208.5738067626953)" fill="#FFFFFF"/><g transform="matrix(1, 0, 0, 1, 8.526512829121202e-14, 2.1316282072803006e-14)">
				<g>
					<g>
						<path fill="#2E3140" d="M1036.2,426.7c1.6-0.8,106.7-90.1,125.5-106c1.1-0.9,2.6-0.8,2.4,0.2l-0.9,6c-0.2,1-0.9,2.2-1.9,3.1&#10;&#9;&#9;&#9;&#9;&#9;&#9;&#9;l-53.4,47.5c-2.6,2.3-4.8,4.9-6.2,7.6l-23.5,42.2c-1.5,2.6-3.5,5.2-6,7.6l-23.7,22.4L1036.2,426.7z"/>
					</g>
				</g>
				<path fill="#454E6B" d="M1163.6,324l-0.5,3c-0.2,1-0.9,2.2-1.9,3.1l-53.4,47.5c-2.6,2.3-4.8,4.9-6.2,7.6l-23.5,42.2&#10;&#9;&#9;&#9;&#9;&#9;c-1.5,2.6-3.5,5.2-6,7.6l-23.7,22.4l-9.2-23.2L1163.6,324L1163.6,324z"/>
			</g><path d="M 1040.300049 284.700012 H 1053.300049 V 653.300018 H 1040.300049 V 284.700012 Z" transform="matrix(0.5275000333786011, 0.8496000170707703, -0.8496000170707703, 0.5275000333786011, 893.0540161132812, -667.6857299804688)" fill="#7483A0"/><path d="M 634.799988 404.100006 H 758.699989 V 492.000008 H 634.799988 V 404.100006 Z" class="st1" style="fill: rgb(129, 185, 194);" transform="matrix(1.9928750991821285, 0, 0, 1.9928750991821285, -48.15372537777972, -447.35636874070497)"/><path d="M 747.799988 404.100006 H 758.599988 V 492.000008 H 747.799988 V 404.100006 Z" class="st2" style="opacity: 0.21;" transform="matrix(1.9928750991821287, 0, 0, 1.9928750991821287, -47.03303205515891, -441.7528985578756)"/><path d="M 640.200012 406.399994 H 645.600012 V 494.299995 H 640.200012 V 406.399994 Z" class="st3" style="opacity: 0.29; fill: rgb(255, 255, 255);" transform="matrix(1.9928750991821287, 0, 0, 1.9928750991821287, -47.03303205515891, -441.7528985578756)"/><path class="st4" d="M760.4,493.8H633v-91.4h127.4V493.8z M636.5,490.3h120.4v-84.4H636.5V490.3z" style="fill: rgb(0, 73, 97);" transform="matrix(1.9928750991821285, 0, 0, 1.9928750991821285, -48.15372537777972, -447.35636874070497)"/><path d="M 627 396.5 H 766.399994 V 404.2 H 627 V 396.5 Z" class="st7" style="fill: rgb(66, 190, 170);" transform="matrix(1.9928750991821285, 0, 0, 1.9928750991821285, -48.15372537777972, -447.35636874070497)"/><path d="M 627 400.299988 H 766.399994 V 404.099988 H 627 V 400.299988 Z" class="st2" style="opacity: 0.21;" transform="matrix(1.9928750991821285, 0, 0, 1.9928750991821285, -48.15372537777972, -447.35636874070497)"/><path class="st4" d="M768.2,405.9H625.2v-11.2h142.9V405.9z M628.8,402.4h135.9v-4.2H628.8V402.4z" style="fill: rgb(0, 73, 97);" transform="matrix(1.9928750991821285, 0, 0, 1.9928750991821285, -48.15372537777972, -447.35636874070497)"/><path d="M 767.400024 398.200012 H 772.800025 V 402.100012 H 767.400024 V 398.200012 Z" class="st6" style="fill: rgb(244, 135, 81);" transform="matrix(1.9928750991821287, 0, 0, 1.9928750991821287, -47.03303205515891, -441.7528985578756)"/><path class="st4" d="M773.9,403.1h-7.4v-5.9h7.4V403.1z M768.4,401.1h3.4v-1.9h-3.4V401.1z" style="fill: rgb(0, 73, 97);" transform="matrix(1.9928750991821287, 0, 0, 1.9928750991821287, -47.03303205515891, -441.7528985578756)"/><path d="M 620.599976 398.200012 H 625.999976 V 402.100012 H 620.599976 V 398.200012 Z" class="st6" style="fill: rgb(244, 135, 81);" transform="matrix(1.9928750991821287, 0, 0, 1.9928750991821287, -47.03303205515891, -441.7528985578756)"/><path class="st4" d="M627,403.1h-7.4v-5.9h7.4V403.1z M621.6,401.1h3.4v-1.9h-3.4V401.1z" style="fill: rgb(0, 73, 97);" transform="matrix(1.9928750991821287, 0, 0, 1.9928750991821287, -47.03303205515891, -441.7528985578756)"/><path d="M 627 492.100006 H 766.399994 V 499.800006 H 627 V 492.100006 Z" class="st7" style="fill: rgb(66, 190, 170);" transform="matrix(1.9928750991821285, 0, 0, 1.9928750991821285, -48.15372537777972, -447.35636874070497)"/><path d="M 627 495.899994 H 766.399994 V 499.699994 H 627 V 495.899994 Z" class="st2" style="opacity: 0.21;" transform="matrix(1.9928750991821285, 0, 0, 1.9928750991821285, -48.15372537777972, -447.35636874070497)"/><path class="st4" d="M768.2,501.5H625.2v-11.2h142.9V501.5z M628.8,498h135.9v-4.1H628.8V498z" style="fill: rgb(0, 73, 97);" transform="matrix(1.9928750991821285, 0, 0, 1.9928750991821285, -48.15372537777972, -447.35636874070497)"/><path d="M 767.400024 493.799988 H 772.800025 V 497.699988 H 767.400024 V 493.799988 Z" class="st6" style="fill: rgb(244, 135, 81);" transform="matrix(1.9928750991821287, 0, 0, 1.9928750991821287, -47.03303205515891, -441.7528985578756)"/><path class="st4" d="M773.9,498.7h-7.4v-5.9h7.4V498.7z M768.4,496.7h3.4v-1.9h-3.4V496.7z" style="fill: rgb(0, 73, 97);" transform="matrix(1.9928750991821287, 0, 0, 1.9928750991821287, -47.03303205515891, -441.7528985578756)"/><path d="M 620.599976 493.799988 H 625.999976 V 497.699988 H 620.599976 V 493.799988 Z" class="st6" style="fill: rgb(244, 135, 81);" transform="matrix(1.9928750991821287, 0, 0, 1.9928750991821287, -47.03303205515891, -441.7528985578756)"/><path class="st4" d="M627,498.7h-7.4v-5.9h7.4V498.7z M621.6,496.7h3.4v-1.9h-3.4V496.7z" style="fill: rgb(0, 73, 97);" transform="matrix(1.9928750991821287, 0, 0, 1.9928750991821287, -47.03303205515891, -441.7528985578756)"/><path d="M 692.400024 499.700012 H 701.000025 V 589.300011 H 692.400024 V 499.700012 Z" class="st0" style="fill: rgb(255, 255, 255);" transform="matrix(1.9928750991821285, 0, 0, 1.9928750991821285, -48.15372537777972, -447.35636874070497)"/><path d="M 696.700012 499.700012 H 701.000012 V 589.300011 H 696.700012 V 499.700012 Z" class="st2" style="opacity: 0.21;" transform="matrix(1.9928750991821285, 0, 0, 1.9928750991821285, -48.15372537777972, -447.35636874070497)"/><path class="st4" d="M702.8,591.1h-12.2V498h12.2V591.1z M694.2,587.6h5.1v-86.1h-5.1V587.6z" style="fill: rgb(0, 73, 97);" transform="matrix(1.9928750991821285, 0, 0, 1.9928750991821285, -48.15372537777972, -447.35636874070497)"/><path class="st0" d="M665.5,589.4l26.9-16.1V565l-37.8,23.8c-0.3,0.2-0.2,0.6,0.2,0.6H665.5z" style="fill: rgb(255, 255, 255);" transform="matrix(1.9928750991821285, 0, 0, 1.9928750991821285, -48.15372537777972, -447.35636874070497)"/><path class="st4" d="M665.9,591.1h-11.1c-0.9,0-1.8-0.6-2-1.5c-0.3-0.9,0.1-1.9,0.9-2.4l40.5-25.5v12.5L665.9,591.1z M659.7,587.6&#10;&#9;&#9;&#9;h5.3l25.7-15.4v-4.1L659.7,587.6z" style="fill: rgb(0, 73, 97);" transform="matrix(1.9928750991821285, 0, 0, 1.9928750991821285, -48.15372537777972, -447.35636874070497)"/><path class="st0" d="M728,589.4L701,573.3V565l37.8,23.8c0.3,0.2,0.2,0.6-0.2,0.6H728z" style="fill: rgb(255, 255, 255);" transform="matrix(1.9928750991821285, 0, 0, 1.9928750991821285, -48.15372537777972, -447.35636874070497)"/><path class="st4" d="M738.6,591.1h-11.1l-28.2-16.9v-12.5l40.5,25.5c0.8,0.5,1.2,1.5,0.9,2.4C740.4,590.5,739.6,591.1,738.6,591.1&#10;&#9;&#9;&#9;z M737.9,590.2C737.9,590.2,737.9,590.2,737.9,590.2L737.9,590.2z M728.5,587.6h5.3l-30.9-19.5v4.1L728.5,587.6z" style="fill: rgb(0, 73, 97);" transform="matrix(1.9928750991821285, 0, 0, 1.9928750991821285, -48.15372537777972, -447.35636874070497)"/><path d="M 653.200012 460.399994 H 664.800013 V 484.299994 H 653.200012 V 460.399994 Z" class="st11" style="fill: rgb(240, 105, 89);" transform="matrix(1.9928750991821287, 0, 0, 1.9928750991821287, -47.03303205515891, -441.7528985578756)"/><path d="M 685.200012 447.299988 H 696.800013 V 484.299988 H 685.200012 V 447.299988 Z" class="st11" style="fill: rgb(240, 105, 89);" transform="matrix(1.9928750991821285, 0, 0, 1.9928750991821285, -48.15372537777972, -447.35636874070497)"/><path d="M 719.599976 429.399994 H 731.199976 V 484.199993 H 719.599976 V 429.399994 Z" class="st11" style="fill: rgb(240, 105, 89);" transform="matrix(1.9928750991821285, 0, 0, 1.9928750991821285, -48.15372537777972, -447.35636874070497)"/><path fill="#E0DDD6" d="M886.8,560.7c0,0-16-28.5-12.1-34.6c3.8-5.8,53.7-48.4,113.3-85.8c5.2-3.3,10.9-5.7,16.6-7.3l86.6-22.9&#10;&#9;&#9;&#9;&#9;c3.8-1,7.2,0,8.8,2.5l3.2,5.2l23.1-14.3c3.9-2.4,7.6-5.1,11-8.1l45.9-40.3c0.3-0.2,0.6-0.5,0.9-0.6l0,0c2.1-1.3,4.6-1.3,5.7,0.1&#10;&#9;&#9;&#9;&#9;l10.1,11.8L886.8,560.7z" transform="matrix(1, 0, 0, 1, 8.526512829121202e-14, 2.1316282072803006e-14)"/><path fill="#7483A0" d="M919.6,531.8l183.7-114l-3.2-5.2c-1.5-2.5-5-3.5-8.8-2.5l-86,22.7c-62.3,50.9-84.2,80.9-91.8,95.1&#10;&#9;&#9;&#9;&#9;C911.5,531.7,915.5,534.3,919.6,531.8z" transform="matrix(1, 0, 0, 1, 8.526512829121202e-14, 2.1316282072803006e-14)"/><path fill="#5B687F" d="M1175.3,389.2L907.3,555.6c-3.3,2-4.8,5.5-3.4,7.7l0.9,1.5L1184.6,391l-0.9-1.5&#10;&#9;&#9;&#9;&#9;C1182.4,387.3,1178.6,387.1,1175.3,389.2z" transform="matrix(1, 0, 0, 1, 8.526512829121202e-14, 2.1316282072803006e-14)"/><path d="M 900.3 570.099976 A 5.3 5.3 0 0 1 895 575.399976 A 5.3 5.3 0 0 1 889.7 570.099976 A 5.3 5.3 0 0 1 895 564.799975 A 5.3 5.3 0 0 1 900.3 570.099976 Z" fill="#2E3140" transform="matrix(1, 0, 0, 1, 5.684341886080802e-14, 1.4210854715202004e-14)"/><path fill="#7483A0" d="M1419.4,1020.8h-138.7c-2.4,0-4.3-1.9-4.3-4.3V818.3c0-2.4,1.9-4.3,4.3-4.3h138.7c2.4,0,4.3,1.9,4.3,4.3&#10;&#9;&#9;&#9;v198.2C1423.7,1018.8,1421.7,1020.8,1419.4,1020.8z" transform="matrix(1, 0, 0, 1, 5.684341886080802e-14, 1.4210854715202004e-14)"/><path fill="#E0DDD6" d="M1274,1020.8H847.5c-1.3,0-2.3-1-2.3-2.3v-409c0-1.3,1-2.3,2.3-2.3H1274c1.3,0,2.3,1,2.3,2.3v409&#10;&#9;&#9;&#9;C1276.4,1019.7,1275.3,1020.8,1274,1020.8z" transform="matrix(1, 0, 0, 1, 5.684341886080802e-14, 1.4210854715202004e-14)"/><g transform="matrix(1, 0, 0, 1, 8.526512829121202e-14, 2.1316282072803006e-14)">
				<g>
					<path fill="#2E3140" d="M730.9,702.4c-1.1,0-80.7-32.9-94.9-38.7c-0.8-0.3-1.6,0.5-1.3,1.3l1.9,5c0.3,0.9,1,1.5,1.8,1.9&#10;&#9;&#9;&#9;&#9;&#9;&#9;l40.9,18.6c2,0.9,3.8,2.3,5.2,4l22.8,27.2c1.4,1.7,3.2,3.1,5.1,4.1l18.5,9.4V702.4z"/>
				</g>
			</g><path fill="#454E6B" d="M635.7,667.4l0.9,2.5c0.3,0.9,1,1.5,1.8,1.9l40.9,18.6c2,0.9,3.8,2.3,5.2,4l22.8,27.2&#10;&#9;&#9;&#9;&#9;c1.4,1.7,3.2,3.1,5.1,4.1l18.5,9.4v-24.7L635.7,667.4L635.7,667.4z" transform="matrix(1, 0, 0, 1, 8.526512829121202e-14, 2.1316282072803006e-14)"/><g transform="matrix(1, 0, 0, 1, 8.526512829121202e-14, 2.1316282072803006e-14)">
				<g>
					<path fill="#2E3140" d="M730.9,805.6c-1.1,0-80.7-32.9-94.9-38.7c-0.8-0.3-1.6,0.5-1.3,1.3l1.9,5c0.3,0.9,1,1.5,1.8,1.9&#10;&#9;&#9;&#9;&#9;&#9;&#9;l40.9,18.6c2,0.9,3.8,2.3,5.2,4l22.8,27.2c1.4,1.7,3.2,3.1,5.1,4.1l18.5,9.4V805.6z"/>
				</g>
			</g><path fill="#454E6B" d="M635.7,770.6l0.9,2.5c0.3,0.9,1,1.5,1.8,1.9l40.9,18.6c2,0.9,3.8,2.3,5.2,4l22.8,27.2&#10;&#9;&#9;&#9;&#9;c1.4,1.7,3.2,3.1,5.1,4.1l18.5,9.4v-24.7L635.7,770.6L635.7,770.6z" transform="matrix(1, 0, 0, 1, 8.526512829121202e-14, 2.1316282072803006e-14)"/><g transform="matrix(1, 0, 0, 1, 8.526512829121202e-14, 2.1316282072803006e-14)">
				<g>
					<path fill="#2E3140" d="M730.9,858.8c-1.1,0-80.7-32.9-94.9-38.7c-0.8-0.3-1.6,0.5-1.3,1.3l1.9,5c0.3,0.9,1,1.5,1.8,1.9&#10;&#9;&#9;&#9;&#9;&#9;&#9;l40.9,18.6c2,0.9,3.8,2.3,5.2,4l22.8,27.2c1.4,1.7,3.2,3.1,5.1,4.1l18.5,9.4V858.8z"/>
				</g>
			</g><path fill="#454E6B" d="M635.7,823.8l0.9,2.5c0.3,0.9,1,1.5,1.8,1.9l40.9,18.6c2,0.9,3.8,2.3,5.2,4l22.8,27.2&#10;&#9;&#9;&#9;&#9;c1.4,1.7,3.2,3.1,5.1,4.1l18.5,9.4v-24.7L635.7,823.8L635.7,823.8z" transform="matrix(1, 0, 0, 1, 8.526512829121202e-14, 2.1316282072803006e-14)"/><path fill="#D2CAC7" d="M935.2,899.7h-32.7c-4,0-7.2,1.6-7.2,3.7v4.9c0,2,3.2,3.7,7.2,3.7h32.7c4,0,7.2-1.6,7.2-3.7v-4.9&#10;&#9;&#9;&#9;&#9;C942.3,901.3,939.1,899.7,935.2,899.7z" transform="matrix(1, 0, 0, 1, 8.526512829121202e-14, 2.1316282072803006e-14)"/><path fill="#B5ADAA" d="M935.2,899.7h-32.7c-4,0-7.2,1.6-7.2,3.7v2.5c0,0,20.5-7.3,47.1,0v-2.5&#10;&#9;&#9;&#9;&#9;C942.3,901.3,939.1,899.7,935.2,899.7z" transform="matrix(1, 0, 0, 1, 8.526512829121202e-14, 2.1316282072803006e-14)"/><path fill="#D2CAC7" d="M1081,899.7h-32.7c-4,0-7.2,1.6-7.2,3.7v4.9c0,2,3.2,3.7,7.2,3.7h32.7c4,0,7.2-1.6,7.2-3.7v-4.9&#10;&#9;&#9;&#9;&#9;C1088.1,901.3,1084.9,899.7,1081,899.7z" transform="matrix(1, 0, 0, 1, 8.526512829121202e-14, 2.1316282072803006e-14)"/><path fill="#B5ADAA" d="M1081,899.7h-32.7c-4,0-7.2,1.6-7.2,3.7v2.5c0,0,20.5-7.3,47.1,0v-2.5&#10;&#9;&#9;&#9;&#9;C1088.1,901.3,1084.9,899.7,1081,899.7z" transform="matrix(1, 0, 0, 1, 8.526512829121202e-14, 2.1316282072803006e-14)"/><path fill="#D2CAC7" d="M1005.7,813.9h-32.7c-4,0-7.2,1.6-7.2,3.7v4.9c0,2,3.2,3.7,7.2,3.7h32.7c4,0,7.2-1.6,7.2-3.7v-4.9&#10;&#9;&#9;&#9;&#9;C1012.9,815.6,1009.6,813.9,1005.7,813.9z" transform="matrix(1, 0, 0, 1, 8.526512829121202e-14, 2.1316282072803006e-14)"/><path fill="#B5ADAA" d="M1005.7,813.9h-32.7c-4,0-7.2,1.6-7.2,3.7v2.5c0,0,20.5-7.3,47.1,0v-2.5&#10;&#9;&#9;&#9;&#9;C1012.9,815.6,1009.6,813.9,1005.7,813.9z" transform="matrix(1, 0, 0, 1, 8.526512829121202e-14, 2.1316282072803006e-14)"/><path fill="#D2CAC7" d="M1005.7,852.7h-32.7c-4,0-7.2,1.6-7.2,3.7v4.9c0,2,3.2,3.7,7.2,3.7h32.7c4,0,7.2-1.6,7.2-3.7v-4.9&#10;&#9;&#9;&#9;&#9;C1012.9,854.3,1009.6,852.7,1005.7,852.7z" transform="matrix(1, 0, 0, 1, 8.526512829121202e-14, 2.1316282072803006e-14)"/><path fill="#B5ADAA" d="M1005.7,852.7h-32.7c-4,0-7.2,1.6-7.2,3.7v2.5c0,0,20.5-7.3,47.1,0v-2.5&#10;&#9;&#9;&#9;&#9;C1012.9,854.3,1009.6,852.7,1005.7,852.7z" transform="matrix(1, 0, 0, 1, 8.526512829121202e-14, 2.1316282072803006e-14)"/><path fill="#D2CAC7" d="M1224.9,899.7h-32.7c-4,0-7.2,1.6-7.2,3.7v4.9c0,2,3.2,3.7,7.2,3.7h32.7c4,0,7.2-1.6,7.2-3.7v-4.9&#10;&#9;&#9;&#9;&#9;C1232,901.3,1228.8,899.7,1224.9,899.7z" transform="matrix(1, 0, 0, 1, 8.526512829121202e-14, 2.1316282072803006e-14)"/><path fill="#B5ADAA" d="M1224.9,899.7h-32.7c-4,0-7.2,1.6-7.2,3.7v2.5c0,0,20.5-7.3,47.1,0v-2.5&#10;&#9;&#9;&#9;&#9;C1232,901.3,1228.8,899.7,1224.9,899.7z" transform="matrix(1, 0, 0, 1, 8.526512829121202e-14, 2.1316282072803006e-14)"/><path fill="#D2CAC7" d="M1224.9,852.7h-32.7c-4,0-7.2,1.6-7.2,3.7v4.9c0,2,3.2,3.7,7.2,3.7h32.7c4,0,7.2-1.6,7.2-3.7v-4.9&#10;&#9;&#9;&#9;&#9;C1232,854.3,1228.8,852.7,1224.9,852.7z" transform="matrix(1, 0, 0, 1, 8.526512829121202e-14, 2.1316282072803006e-14)"/><path fill="#B5ADAA" d="M1224.9,852.7h-32.7c-4,0-7.2,1.6-7.2,3.7v2.5c0,0,20.5-7.3,47.1,0v-2.5&#10;&#9;&#9;&#9;&#9;C1232,854.3,1228.8,852.7,1224.9,852.7z" transform="matrix(1, 0, 0, 1, 8.526512829121202e-14, 2.1316282072803006e-14)"/><path fill="#D2CAC7" d="M1224.9,813.9h-32.7c-4,0-7.2,1.6-7.2,3.7v4.9c0,2,3.2,3.7,7.2,3.7h32.7c4,0,7.2-1.6,7.2-3.7v-4.9&#10;&#9;&#9;&#9;&#9;C1232,815.6,1228.8,813.9,1224.9,813.9z" transform="matrix(1, 0, 0, 1, 8.526512829121202e-14, 2.1316282072803006e-14)"/><path fill="#B5ADAA" d="M1224.9,813.9h-32.7c-4,0-7.2,1.6-7.2,3.7v2.5c0,0,20.5-7.3,47.1,0v-2.5&#10;&#9;&#9;&#9;&#9;C1232,815.6,1228.8,813.9,1224.9,813.9z" transform="matrix(1, 0, 0, 1, 8.526512829121202e-14, 2.1316282072803006e-14)"/><path fill="#2E3140" d="M1266.1,571.7H855.4c-1.8,0-3.3,1.5-3.3,3.3v29.1c0,1.8,1.5,3.3,3.3,3.3h410.7c1.8,0,3.3-1.5,3.3-3.3V575&#10;&#9;&#9;&#9;C1269.5,573.2,1268,571.7,1266.1,571.7z" transform="matrix(1, 0, 0, 1, 5.684341886080802e-14, 1.4210854715202004e-14)"/><path fill="#45495B" d="M1269.5,581.1v-6.2c0-1.8-1.4-3.2-3.2-3.2h-411c-1.8,0-3.2,1.4-3.2,3.2v6.2H1269.5z" transform="matrix(1, 0, 0, 1, 5.684341886080802e-14, 1.4210854715202004e-14)"/><path d="M 1097.800049 734.400024 H 1098.600049 V 735.200024 H 1097.800049 V 734.400024 Z" fill="#969693" transform="matrix(1, 0, 0, 1, 5.684341886080802e-14, 1.4210854715202004e-14)"/><path d="M 845.200012 876.900024 H 1276.400024 V 879.800025 H 845.200012 V 876.900024 Z" fill="#2E3140" transform="matrix(1, 0, 0, 1, 5.684341886080802e-14, 1.4210854715202004e-14)"/><path d="M 845.200012 838.099976 H 1276.400024 V 840.999976 H 845.200012 V 838.099976 Z" fill="#2E3140" transform="matrix(1, 0, 0, 1, 5.684341886080802e-14, 1.4210854715202004e-14)"/><path d="M 845.200012 802.5 H 1276.400024 V 805.4 H 845.200012 V 802.5 Z" fill="#2E3140" transform="matrix(1, 0, 0, 1, 5.684341886080802e-14, 1.4210854715202004e-14)"/><path d="M 989.299988 877.900024 H 992.199988 V 1020.800018 H 989.299988 V 877.900024 Z" fill="#2E3140" transform="matrix(1, 0, 0, 1, 5.684341886080802e-14, 1.4210854715202004e-14)"/><path d="M 1134.900024 681.599976 H 1137.800025 V 1020.799988 H 1134.900024 V 681.599976 Z" fill="#2E3140" transform="matrix(1, 0, 0, 1, 5.684341886080802e-14, 1.4210854715202004e-14)"/><path fill="#7483A0" d="M1273.6,607.1H928c-1,0-1.8,0.4-1.8,0.9v71.1v3.7h9.5h339.8V608C1275.4,607.5,1274.6,607.1,1273.6,607.1z" transform="matrix(1, 0, 0, 1, 5.684341886080802e-14, 1.4210854715202004e-14)"/><path d="M 924.700012 585.700012 H 927.600012 V 804.200012 H 924.700012 V 585.700012 Z" fill="#2E3140" transform="matrix(1, 0, 0, 1, 5.684341886080802e-14, 1.4210854715202004e-14)"/><path fill="#2E3140" d="M1060.4,585l-105.1-9.6l2,48.7c0.2,1.7,1.7,2.9,3.3,2.9h99.8h99.8c1.7,0,3.1-1.2,3.3-2.9l2-48.7&#10;&#9;&#9;&#9;&#9;L1060.4,585z" transform="matrix(1, 0, 0, 1, 8.526512829121202e-14, 2.1316282072803006e-14)"/><path fill="#4D5165" d="M1061.1,575.6H956l5.2,39.1c0.2,1.7,1.6,2.9,3.2,2.9h96.7h96.7c1.6,0,3-1.2,3.2-2.9l5.2-39.1H1061.1z" transform="matrix(1, 0, 0, 1, 8.526512829121202e-14, 2.1316282072803006e-14)"/><path fill="#DDDEE3" d="M964.7,581.1h104c1.3,0,2.4,1.1,2.4,2.4v25.9c0,1.3-1.1,2.4-2.4,2.4H968.5c-1.2,0-2.2-0.9-2.4-2.1&#10;&#9;&#9;&#9;&#9;&#9;l-3.8-25.9C962.1,582.4,963.2,581.1,964.7,581.1z" transform="matrix(1, 0, 0, 1, 1.1368683772161603e-13, 2.842170943040401e-14)"/><path d="M 967.200012 586.900024 H 991.900013 V 587.400024 H 967.200012 V 586.900024 Z" transform="matrix(1, 0, 0, 1, 1.4210854715202004e-13, 3.552713678800501e-14)"/><path d="M 968.5 591.599976 H 1006.099998 V 592.099976 H 968.5 V 591.599976 Z" transform="matrix(1, 0, 0, 1, 1.4210854715202004e-13, 3.552713678800501e-14)"/><path d="M 970.299988 596.299988 H 1007.899986 V 596.799988 H 970.299988 V 596.299988 Z" transform="matrix(1, 0, 0, 1, 1.4210854715202004e-13, 3.552713678800501e-14)"/><path d="M 972.200012 601.099976 H 1009.800011 V 601.599976 H 972.200012 V 601.099976 Z" transform="matrix(1, 0, 0, 1, 1.4210854715202004e-13, 3.552713678800501e-14)"/><path d="M 974.099976 605.799988 H 1011.699974 V 606.299988 H 974.099976 V 605.799988 Z" transform="matrix(1, 0, 0, 1, 1.4210854715202004e-13, 3.552713678800501e-14)"/><path fill="#5FA8D4" d="M1076.2,583.3v26.3c0,1.2,1,2.2,2.2,2.2h25.9c1.2,0,2.2-1,2.2-2.2v-26.3c0-1.2-1-2.2-2.2-2.2h-25.9&#10;&#9;&#9;&#9;&#9;&#9;C1077.2,581.1,1076.2,582.1,1076.2,583.3z" transform="matrix(1, 0, 0, 1, 1.1368683772161603e-13, 2.842170943040401e-14)"/><path d="M 1096.5999755859375 581.0999755859375 L 1078.4000244140625 611.7999877929688 L 1087.5 611.7999877929688 L 1098.4000244140625 581.0999755859375 Z" fill="#80AFD5" transform="matrix(1, 0, 0, 1, 1.1368683772161603e-13, 2.842170943040401e-14)"/><path fill="#F26A22" d="M1119.2,587.8h-6.4c-0.5,0-0.9-0.4-0.9-0.9v-4.2c0-0.5,0.4-0.9,0.9-0.9h6.4c0.5,0,0.9,0.4,0.9,0.9v4.2&#10;&#9;&#9;&#9;&#9;C1120.1,587.4,1119.7,587.8,1119.2,587.8z" transform="matrix(1, 0, 0, 1, 8.526512829121202e-14, 2.1316282072803006e-14)"/><path fill="#E0DDD6" d="M1119.2,595.6h-6.4c-0.5,0-0.9-0.4-0.9-0.9v-4.2c0-0.5,0.4-0.9,0.9-0.9h6.4c0.5,0,0.9,0.4,0.9,0.9v4.2&#10;&#9;&#9;&#9;&#9;C1120.1,595.2,1119.7,595.6,1119.2,595.6z" transform="matrix(1, 0, 0, 1, 8.526512829121202e-14, 2.1316282072803006e-14)"/><path fill="#E0DDD6" d="M1119.2,603.4h-6.4c-0.5,0-0.9-0.4-0.9-0.9v-4.2c0-0.5,0.4-0.9,0.9-0.9h6.4c0.5,0,0.9,0.4,0.9,0.9v4.2&#10;&#9;&#9;&#9;&#9;C1120.1,603,1119.7,603.4,1119.2,603.4z" transform="matrix(1, 0, 0, 1, 8.526512829121202e-14, 2.1316282072803006e-14)"/><path fill="#E0DDD6" d="M1119.2,611.2h-6.4c-0.5,0-0.9-0.4-0.9-0.9V606c0-0.5,0.4-0.9,0.9-0.9h6.4c0.5,0,0.9,0.4,0.9,0.9v4.2&#10;&#9;&#9;&#9;&#9;C1120.1,610.8,1119.7,611.2,1119.2,611.2z" transform="matrix(1, 0, 0, 1, 8.526512829121202e-14, 2.1316282072803006e-14)"/><path fill="#E0DDD6" d="M1129,587.8h-6.4c-0.5,0-0.9-0.4-0.9-0.9v-4.2c0-0.5,0.4-0.9,0.9-0.9h6.4c0.5,0,0.9,0.4,0.9,0.9v4.2&#10;&#9;&#9;&#9;&#9;C1130,587.4,1129.5,587.8,1129,587.8z" transform="matrix(1, 0, 0, 1, 8.526512829121202e-14, 2.1316282072803006e-14)"/><path fill="#E0DDD6" d="M1138.6,587.8h-6.4c-0.5,0-0.9-0.4-0.9-0.9v-4.2c0-0.5,0.4-0.9,0.9-0.9h6.4c0.5,0,0.9,0.4,0.9,0.9v4.2&#10;&#9;&#9;&#9;&#9;C1139.6,587.4,1139.2,587.8,1138.6,587.8z" transform="matrix(1, 0, 0, 1, 8.526512829121202e-14, 2.1316282072803006e-14)"/><path fill="#E0DDD6" d="M1148.2,587.8h-6.4c-0.5,0-0.9-0.4-0.9-0.9v-4.2c0-0.5,0.4-0.9,0.9-0.9h6.4c0.5,0,0.9,0.4,0.9,0.9v4.2&#10;&#9;&#9;&#9;&#9;C1149.2,587.4,1148.8,587.8,1148.2,587.8z" transform="matrix(1, 0, 0, 1, 8.526512829121202e-14, 2.1316282072803006e-14)"/><path fill="#E0DDD6" d="M1157.9,587.8h-6.4c-0.5,0-0.9-0.4-0.9-0.9v-4.2c0-0.5,0.4-0.9,0.9-0.9h6.4c0.5,0,0.9,0.4,0.9,0.9v4.2&#10;&#9;&#9;&#9;&#9;C1158.8,587.4,1158.4,587.8,1157.9,587.8z" transform="matrix(1, 0, 0, 1, 8.526512829121202e-14, 2.1316282072803006e-14)"/><path fill="#E0DDD6" d="M1129,595.6h-6.4c-0.5,0-0.9-0.4-0.9-0.9v-4.2c0-0.5,0.4-0.9,0.9-0.9h6.4c0.5,0,0.9,0.4,0.9,0.9v4.2&#10;&#9;&#9;&#9;&#9;C1130,595.2,1129.5,595.6,1129,595.6z" transform="matrix(1, 0, 0, 1, 8.526512829121202e-14, 2.1316282072803006e-14)"/><path fill="#E0DDD6" d="M1129,603.4h-6.4c-0.5,0-0.9-0.4-0.9-0.9v-4.2c0-0.5,0.4-0.9,0.9-0.9h6.4c0.5,0,0.9,0.4,0.9,0.9v4.2&#10;&#9;&#9;&#9;&#9;C1130,603,1129.5,603.4,1129,603.4z" transform="matrix(1, 0, 0, 1, 8.526512829121202e-14, 2.1316282072803006e-14)"/><path fill="#E0DDD6" d="M1129,611.2h-6.4c-0.5,0-0.9-0.4-0.9-0.9V606c0-0.5,0.4-0.9,0.9-0.9h6.4c0.5,0,0.9,0.4,0.9,0.9v4.2&#10;&#9;&#9;&#9;&#9;C1130,610.8,1129.5,611.2,1129,611.2z" transform="matrix(1, 0, 0, 1, 8.526512829121202e-14, 2.1316282072803006e-14)"/><path d="M 1151.600049 598.400024 A 7.3 7.3 0 0 1 1144.300049 605.700025 A 7.3 7.3 0 0 1 1137.000049 598.400024 A 7.3 7.3 0 0 1 1144.300049 591.100024 A 7.3 7.3 0 0 1 1151.600049 598.400024 Z" fill="#60B24E" transform="matrix(1, 0, 0, 1, 8.526512829121202e-14, 2.1316282072803006e-14)"/><path d="M 1148.600049 605.599976 A 4.3 4.3 0 0 1 1144.300049 609.899976 A 4.3 4.3 0 0 1 1140.000049 605.599976 A 4.3 4.3 0 0 1 1144.300049 601.299975 A 4.3 4.3 0 0 1 1148.600049 605.599976 Z" fill="#D8E025" transform="matrix(1, 0, 0, 1, 8.526512829121202e-14, 2.1316282072803006e-14)"/><path fill="#2E3140" d="M1278.8,814.3c-1.4,0.7-2.4,2.1-2.4,3.7v198.6c0,1.7,1,3.1,2.4,3.7V814.3z" transform="matrix(1, 0, 0, 1, 5.684341886080802e-14, 1.4210854715202004e-14)"/><path fill="#C8C6C0" d="M757.2,644.9v-27.3h-20.6c-4.5,0-8.1,3.6-8.1,8.1v375.8c0,4.5,3.6,8.1,8.1,8.1h100.4&#10;&#9;&#9;&#9;c4.5,0,8.1-3.6,8.1-8.1V644.9H757.2z" transform="matrix(1, 0, 0, 1, 5.684341886080802e-14, 1.4210854715202004e-14)"/><path d="M 842.799988 644.799988 H 845.699988 V 1008.899994 H 842.799988 V 644.799988 Z" fill="#2E3140" transform="matrix(1, 0, 0, 1, 5.684341886080802e-14, 1.4210854715202004e-14)"/><path d="M 728.5 768.599976 H 845.400002 V 771.499976 H 728.5 V 768.599976 Z" fill="#2E3140" transform="matrix(1, 0, 0, 1, 5.684341886080802e-14, 1.4210854715202004e-14)"/><linearGradient id="SVGID_4_" gradientUnits="userSpaceOnUse" x1="1099.429" y1="570.207" x2="1099.429" y2="434.98">
			<stop offset="0" style="stop-color:#F5F29E"/>
			<stop offset="0.1165" style="stop-color:#F7F4B1;stop-opacity:0.8835"/>
			<stop offset="0.3661" style="stop-color:#FAF9D3;stop-opacity:0.6339"/>
			<stop offset="0.6033" style="stop-color:#FDFCEB;stop-opacity:0.3967"/>
			<stop offset="0.8207" style="stop-color:#FEFEFA;stop-opacity:0.1793"/>
			<stop offset="1" style="stop-color:#FFFFFF;stop-opacity:0"/>
			
			
			
		</linearGradient><path d="M 1216.9000244140625 571.7000122070312 L 1263.699951171875 437.20001220703125 L 1106.5 437.20001220703125 L 935.2000122070312 545.9000244140625 L 940.7999877929688 571.7000122070312 Z" fill="url(#SVGID_4_)" transform="matrix(1, 0, 0, 1, 5.684341886080802e-14, 1.4210854715202004e-14)"/><path d="M -52.900002 774.900024 H 522.899986 V 833.500023 H -52.900002 V 774.900024 Z" clip-path="url(#SVGID_2_)" fill="#A74238" transform="matrix(1, 0, 0, 1, 2.842170943040401e-14, 7.105427357601002e-15)"/><path d="M -119.300003 823.799988 H 527.699997 V 843.099987 H -119.300003 V 823.799988 Z" clip-path="url(#SVGID_2_)" fill="#8E3722" transform="matrix(1, 0, 0, 1, 2.842170943040401e-14, 7.105427357601002e-15)"/><path d="M 511.299988 774.900024 H 535.399988 V 1125.300018 H 511.299988 V 774.900024 Z" clip-path="url(#SVGID_2_)" fill="#65220D" transform="matrix(1, 0, 0, 1, 2.842170943040401e-14, 7.105427357601002e-15)"/><path d="M 603.7999877929688 750.7000122070312 L 511.29998779296875 667.4000244140625 L -10.300000190734863 667.4000244140625 L -43.20000076293945 750.7000122070312 Z" clip-path="url(#SVGID_2_)" fill="#A74238" transform="matrix(1, 0, 0, 1, 2.842170943040401e-14, 7.105427357601002e-15)"/><path d="M -43.200001 750.700012 H 603.799999 V 785.200012 H -43.200001 V 750.700012 Z" clip-path="url(#SVGID_2_)" fill="#8E3722" transform="matrix(1, 0, 0, 1, 2.842170943040401e-14, 7.105427357601002e-15)"/><path d="M 39.900001525878906 599.2000122070312 L 215.8000030517578 601.4000244140625 L 39.900001525878906 600.2999877929688 Z" fill="#B6B3C6" transform="matrix(1, 0, 0, 1, 21.293184368976085, -7.844857399096419)"/><path d="M 40.29999923706055 589.9000244140625 L 121 592.0999755859375 L 40.29999923706055 591 Z" fill="#B6B3C6" transform="matrix(1, 0, 0, 1, 21.293184368976085, -7.844857399096419)"/><path d="M 219.89999389648438 615.2000122070312 L 103.5999984741211 617.4000244140625 L 219.89999389648438 616.2999877929688 Z" fill="#B6B3C6" transform="matrix(1, 0, 0, 1, 21.293184368976085, -7.844857399096419)"/><path d="M 68 556.0999755859375 L 243.89999389648438 558.2999877929688 L 68 557.2000122070312 Z" fill="#B6B3C6" transform="matrix(1, 0, 0, 1, 21.293184368976085, -7.844857399096419)"/><path d="M 68.4000015258789 546.7999877929688 L 149.10000610351562 549 L 68.4000015258789 547.9000244140625 Z" fill="#B6B3C6" transform="matrix(1, 0, 0, 1, 21.293184368976085, -7.844857399096419)"/><path d="M 248 572.0999755859375 L 131.6999969482422 574.2999877929688 L 248 573.2000122070312 Z" fill="#B6B3C6" transform="matrix(1, 0, 0, 1, 21.293184368976085, -7.844857399096419)"/><path fill-rule="evenodd" clip-rule="evenodd" fill="#71BB44" d="M72.1,211.6c0,0,5-3.5,0.5-19.9C68.2,175.2,59,174.4,59,174.4&#10;&#9;&#9;&#9;s-9.9,15.1-9.6,28.4c0.3,13.3,13.3,11.7,13.3,11.7L72.1,211.6z" transform="matrix(1, 0, 0, 1, 21.293184368976085, -7.844857399096419)"/><path fill-rule="evenodd" clip-rule="evenodd" fill="#9BCB3F" d="M68.4,211.2c0,0,5-3.5,0.5-19.9c-4.5-16.5-12.1-17.8-12.1-17.8&#10;&#9;&#9;&#9;s-11.5,15.7-11.2,29C46,215.8,59,214.2,59,214.2L68.4,211.2z" transform="matrix(1, 0, 0, 1, 21.293184368976085, -7.844857399096419)"/><path fill-rule="evenodd" clip-rule="evenodd" fill="#71BB44" d="M60.2,212.1c0,0,2.9-4.2-5.6-15.6c-8.4-11.4-14.7-10.2-14.7-10.2&#10;&#9;&#9;&#9;s-4.2,15.6,0,25.9c4.2,10.2,13.8,5.1,13.8,5.1L60.2,212.1z" transform="matrix(1, 0, 0, 1, 21.293184368976085, -7.844857399096419)"/><path fill-rule="evenodd" clip-rule="evenodd" fill="#88C543" d="M58.5,212.2c0,0,2.9-4.2-5.6-15.6c-8.4-11.4-14.7-10.2-14.7-10.2&#10;&#9;&#9;&#9;s-4.2,15.6,0,25.9c4.2,10.2,13.8,5.1,13.8,5.1L58.5,212.2z" transform="matrix(1, 0, 0, 1, 21.293184368976085, -7.844857399096419)"/><path fill-rule="evenodd" clip-rule="evenodd" fill="#71BB44" d="M62.4,212.7c0,0-2.9-4.2,5.6-15.6c8.4-11.4,14.1-10.9,14.1-10.9&#10;&#9;&#9;&#9;s6.6,12.4,1.2,25c-5.3,12.6-14.4,6.7-14.4,6.7L62.4,212.7z" transform="matrix(1, 0, 0, 1, 21.293184368976085, -7.844857399096419)"/><path fill-rule="evenodd" clip-rule="evenodd" fill="#88C543" d="M61.6,210.9c0,0-2.9-4.2,5.6-15.6c8.4-11.4,14.7-10.2,14.7-10.2&#10;&#9;&#9;&#9;s4.2,15.6,0,25.9C77.7,221.2,68,216,68,216L61.6,210.9z" transform="matrix(1, 0, 0, 1, 21.293184368976085, -7.844857399096419)"/><path fill-rule="evenodd" clip-rule="evenodd" fill="#744A19" d="M37.3,212.2h46c0,0-0.7,26.8-1.3,28.3c-0.7,1.5-4.6,4.8-8.2,5.7&#10;&#9;&#9;&#9;c-3.6,0.9-30.4,0-30.4,0s-5.2-2.7-5.2-6.3C38.3,236.3,37.3,212.2,37.3,212.2z" transform="matrix(1, 0, 0, 1, 21.293184368976085, -7.844857399096419)"/><path fill-rule="evenodd" clip-rule="evenodd" fill="#8F5C25" d="M38.2,235.9c-0.2-6.7-0.7-19.1-0.8-22.6l1.1-0.5l27,2.3&#10;&#9;&#9;&#9;c0,0-0.5,13.4-3.4,16.9C59.2,235.4,40.3,236.2,38.2,235.9z" transform="matrix(1, 0, 0, 1, 21.293184368976085, -7.844857399096419)"/><path d="M 37.299999 212.199997 H 83.299999 V 215.099997 H 37.299999 V 212.199997 Z" fill-rule="evenodd" clip-rule="evenodd" fill="#563506" transform="matrix(1, 0, 0, 1, 21.293184368976085, -7.844857399096419)"/><path d="M 379 515.7999877929688 L 329.79998779296875 515.7999877929688 L 357.3999938964844 632.7999877929688 L 379 632.7999877929688 L 400.70001220703125 632.7999877929688 L 428.29998779296875 515.7999877929688 Z" clip-path="url(#SVGID_2_)" fill="#2E88B0" transform="matrix(1, 0, 0, 1, 2.842170943040401e-14, 7.105427357601002e-15)"/><path d="M 496 691.5 L 316 691.5 L 316 720.2000122070312 L 330 720.7000122070312 L 316 720.7000122070312 L 316 734.7000122070312 L 496 734.7000122070312 L 496 724.7999877929688 L 491.6000061035156 724.5999755859375 L 496 724.2999877929688 L 496 698.7000122070312 L 489.1000061035156 698.4000244140625 L 496 698 Z" fill="#EAE8E4" transform="matrix(1, 0, 0, 1, 5.684341886080802e-14, 1.4210854715202004e-14)"/><path d="M 316 710.2000122070312 L 492 712.4000244140625 L 316 711.2999877929688 Z" fill="#B6B3C6" transform="matrix(1, 0, 0, 1, 5.684341886080802e-14, 1.4210854715202004e-14)"/><path d="M 316.5 700.9000244140625 L 397.1000061035156 703.0999755859375 L 316.5 702 Z" fill="#B6B3C6" transform="matrix(1, 0, 0, 1, 5.684341886080802e-14, 1.4210854715202004e-14)"/><path d="M 496 726.2000122070312 L 379.70001220703125 728.4000244140625 L 496 727.2999877929688 Z" fill="#B6B3C6" transform="matrix(1, 0, 0, 1, 5.684341886080802e-14, 1.4210854715202004e-14)"/><path d="M 464.79998779296875 648.5 L 284.8999938964844 648.5 L 284.8999938964844 677.2000122070312 L 298.8999938964844 677.7000122070312 L 284.8999938964844 677.7000122070312 L 284.8999938964844 691.7000122070312 L 464.79998779296875 691.7000122070312 L 464.79998779296875 681.7999877929688 L 460.3999938964844 681.5999755859375 L 464.79998779296875 681.2999877929688 L 464.79998779296875 655.7000122070312 L 457.8999938964844 655.4000244140625 L 464.79998779296875 655 Z" fill="#EAE8E4" transform="matrix(1, 0, 0, 1, 5.684341886080802e-14, 1.4210854715202004e-14)"/><path d="M 284.8999938964844 667.2000122070312 L 460.79998779296875 669.4000244140625 L 284.8999938964844 668.2999877929688 Z" fill="#B6B3C6" transform="matrix(1, 0, 0, 1, 5.684341886080802e-14, 1.4210854715202004e-14)"/><path d="M 285.29998779296875 657.9000244140625 L 365.8999938964844 660.0999755859375 L 285.29998779296875 659 Z" fill="#B6B3C6" transform="matrix(1, 0, 0, 1, 5.684341886080802e-14, 1.4210854715202004e-14)"/><path d="M 464.79998779296875 683.2000122070312 L 348.6000061035156 685.4000244140625 L 464.79998779296875 684.2999877929688 Z" fill="#B6B3C6" transform="matrix(1, 0, 0, 1, 5.684341886080802e-14, 1.4210854715202004e-14)"/><path d="M 501.70001220703125 605.2000122070312 L 321.70001220703125 605.2000122070312 L 321.70001220703125 633.9000244140625 L 335.70001220703125 634.5 L 321.70001220703125 634.5 L 321.70001220703125 648.5 L 501.70001220703125 648.5 L 501.70001220703125 638.5999755859375 L 497.29998779296875 638.4000244140625 L 501.70001220703125 638.0999755859375 L 501.70001220703125 612.5 L 494.79998779296875 612.2000122070312 L 501.70001220703125 611.7000122070312 Z" fill="#EAE8E4" transform="matrix(1, 0, 0, 1, 5.684341886080802e-14, 1.4210854715202004e-14)"/><path d="M 321.70001220703125 624 L 497.70001220703125 626.2000122070312 L 321.70001220703125 625.0999755859375 Z" fill="#B6B3C6" transform="matrix(1, 0, 0, 1, 5.684341886080802e-14, 1.4210854715202004e-14)"/><path d="M 322.20001220703125 614.7000122070312 L 402.79998779296875 616.9000244140625 L 322.20001220703125 615.7999877929688 Z" fill="#B6B3C6" transform="matrix(1, 0, 0, 1, 5.684341886080802e-14, 1.4210854715202004e-14)"/><path d="M 501.70001220703125 640 L 385.3999938964844 642.2000122070312 L 501.70001220703125 641.0999755859375 Z" fill="#B6B3C6" transform="matrix(1, 0, 0, 1, 5.684341886080802e-14, 1.4210854715202004e-14)"/><path d="M 428.200001 515.799988 A 49.200001 4.7 0 0 1 379 520.499988 A 49.200001 4.7 0 0 1 329.799999 515.799988 A 49.200001 4.7 0 0 1 379 511.099988 A 49.200001 4.7 0 0 1 428.200001 515.799988 Z" clip-path="url(#SVGID_2_)" fill="#267192" transform="matrix(1, 0, 0, 1, 2.842170943040401e-14, 7.105427357601002e-15)"/>
<g transform="matrix(1.4174301624298093, 0, 0, 1.4174301624298093, -871.865281021739, 412.1528250682759)">
			<path class="st7" d="M766.5,219H627c-3,0-5.4-2.4-5.4-5.4v-51.9c0-3,2.4-5.4,5.4-5.4h139.5c3,0,5.4,2.4,5.4,5.4v51.9&#10;&#9;&#9;&#9;&#9;C771.8,216.6,769.4,219,766.5,219z" style="fill: rgb(66, 190, 170);"/>
			<path class="st10" d="M766.5,220.6H627c-3.8,0-7-3.1-7-7v-51.9c0-3.8,3.1-7,7-7h139.5c3.8,0,7,3.1,7,7v51.9&#10;&#9;&#9;&#9;&#9;C773.4,217.5,770.3,220.6,766.5,220.6z M627,158.1c-2.1,0-3.7,1.7-3.7,3.7v51.9c0,2.1,1.7,3.7,3.7,3.7h139.5&#10;&#9;&#9;&#9;&#9;c2.1,0,3.7-1.7,3.7-3.7v-51.9c0-2.1-1.7-3.7-3.7-3.7H627z" style="fill: rgb(0, 56, 78);"/>
		</g><path d="M 626.200012 156.5 H 631.700012 V 219.099998 H 626.200012 V 156.5 Z" class="st9" style="opacity: 0.27; fill: rgb(255, 255, 255);" transform="matrix(1.4174301624298093, 0, 0, 1.4174301624298093, -871.865281021739, 412.1528250682759)"/><path class="st2" d="M766.5,156.5h-9.7c3,0,5.4,2.4,5.4,5.4v51.9c0,3-2.4,5.4-5.4,5.4h9.7c3,0,5.4-2.4,5.4-5.4v-51.9&#10;&#9;&#9;&#9;C771.8,158.9,769.4,156.5,766.5,156.5z" style="opacity: 0.21;" transform="matrix(1.4174301624298093, 0, 0, 1.4174301624298093, -871.865281021739, 412.1528250682759)"/><path class="st10" d="M766.5,220.6H627c-3.8,0-7-3.1-7-7v-51.9c0-3.8,3.1-7,7-7h139.5c3.8,0,7,3.1,7,7v51.9&#10;&#9;&#9;&#9;C773.4,217.5,770.3,220.6,766.5,220.6z M627,158.1c-2.1,0-3.7,1.7-3.7,3.7v51.9c0,2.1,1.7,3.7,3.7,3.7h139.5&#10;&#9;&#9;&#9;c2.1,0,3.7-1.7,3.7-3.7v-51.9c0-2.1-1.7-3.7-3.7-3.7H627z" style="fill: rgb(0, 56, 78);" transform="matrix(1.4174301624298093, 0, 0, 1.4174301624298093, -871.865281021739, 412.1528250682759)"/><path d="M 640.599976 156.5 H 752.899979 V 187.799999 H 640.599976 V 156.5 Z" class="st6" style="fill: rgb(244, 135, 81);" transform="matrix(1.4174301624298093, 0, 0, 1.4174301624298093, -871.865281021739, 412.1528250682759)"/><path d="M 744.700012 156.5 H 752.900012 V 187.799999 H 744.700012 V 156.5 Z" class="st18" style="opacity: 0.11;" transform="matrix(1.4174301624298093, 0, 0, 1.4174301624298093, -871.865281021739, 412.1528250682759)"/><path d="M 644.599976 156.5 H 648.699975 V 187.799999 H 644.599976 V 156.5 Z" class="st9" style="opacity: 0.27; fill: rgb(255, 255, 255);" transform="matrix(1.4174301624298093, 0, 0, 1.4174301624298093, -871.865281021739, 412.1528250682759)"/><path class="st10" d="M754.5,189.4H638.9v-34.5h115.5V189.4z M642.2,186.1h109.1v-28.1H642.2V186.1z" style="fill: rgb(0, 56, 78);" transform="matrix(1.4174301624298093, 0, 0, 1.4174301624298093, -871.865281021739, 412.1528250682759)"/><path d="M 653.200012 198.699997 H 740.300011 V 207.899997 H 653.200012 V 198.699997 Z" class="st1" style="fill: rgb(129, 185, 194);" transform="matrix(1.4174301624298093, 0, 0, 1.4174301624298093, -871.865281021739, 412.1528250682759)"/><path class="st10" d="M741.9,209.5h-90.3v-12.5h90.3V209.5z M654.8,206.3h83.8v-6h-83.8V206.3z" style="fill: rgb(0, 56, 78);" transform="matrix(1.4174301624298093, 0, 0, 1.4174301624298093, -871.865281021739, 412.1528250682759)"/><path d="M 767.499976 193.100006 A 4.9 4.9 0 0 1 762.599976 198.000006 A 4.9 4.9 0 0 1 757.699975 193.100006 A 4.9 4.9 0 0 1 762.599976 188.200006 A 4.9 4.9 0 0 1 767.499976 193.100006 Z" class="st11" style="fill: rgb(240, 105, 89);" transform="matrix(1.4174301624298093, 0, 0, 1.4174301624298093, -871.865281021739, 412.1528250682759)"/><path d="M 767.499976 208.399994 A 4.9 4.9 0 0 1 762.599976 213.299994 A 4.9 4.9 0 0 1 757.699975 208.399994 A 4.9 4.9 0 0 1 762.599976 203.499994 A 4.9 4.9 0 0 1 767.499976 208.399994 Z" class="st11" style="fill: rgb(240, 105, 89);" transform="matrix(1.4174301624298093, 0, 0, 1.4174301624298093, -871.865281021739, 412.1528250682759)"/><path class="st10" d="M762.6,199.7c-3.6,0-6.5-2.9-6.5-6.5s2.9-6.5,6.5-6.5c3.6,0,6.5,2.9,6.5,6.5S766.2,199.7,762.6,199.7z&#10;&#9;&#9;&#9; M762.6,189.8c-1.8,0-3.3,1.5-3.3,3.3s1.5,3.3,3.3,3.3c1.8,0,3.3-1.5,3.3-3.3S764.4,189.8,762.6,189.8z" style="fill: rgb(0, 56, 78);" transform="matrix(1.4174301624298093, 0, 0, 1.4174301624298093, -871.865281021739, 412.1528250682759)"/><path class="st10" d="M762.6,214.9c-3.6,0-6.5-2.9-6.5-6.5s2.9-6.5,6.5-6.5c3.6,0,6.5,2.9,6.5,6.5S766.2,214.9,762.6,214.9z&#10;&#9;&#9;&#9; M762.6,205.1c-1.8,0-3.3,1.5-3.3,3.3s1.5,3.3,3.3,3.3c1.8,0,3.3-1.5,3.3-3.3S764.4,205.1,762.6,205.1z" style="fill: rgb(0, 56, 78);" transform="matrix(1.4174301624298093, 0, 0, 1.4174301624298093, -871.865281021739, 412.1528250682759)"/><path d="M 740.0999755859375 99.9000015258789 L 653.2999877929688 99.9000015258789 L 648.7000122070312 156.5 L 744.7000122070312 156.5 Z" class="st1" style="fill: rgb(129, 185, 194);" transform="matrix(1.4174301624298096, 0, 0, 1.4174301624298096, -850.5721110411803, 404.30797463215356)"/><path class="st10" d="M746.5,158.1H647l4.9-59.8h89.7L746.5,158.1z M650.5,154.8H743l-4.4-53.3h-83.8L650.5,154.8z" style="fill: rgb(0, 56, 78);" transform="matrix(1.4174301624298096, 0, 0, 1.4174301624298096, -850.5721110411803, 404.30797463215356)"/><path d="M 727.5999755859375 86.9000015258789 L 665.7999877929688 86.9000015258789 L 663.5 156.1999969482422 L 730 156.1999969482422 Z" class="st0" style="fill: rgb(255, 255, 255);" transform="matrix(1.4174301624298096, 0, 0, 1.4174301624298096, -850.5721110411803, 404.30797463215356)"/><path class="st10" d="M731.6,157.9h-69.8l2.4-72.6h65L731.6,157.9z M665.2,154.6h63.1l-2.2-66.1h-58.7L665.2,154.6z" style="fill: rgb(0, 56, 78);" transform="matrix(1.4174301624298096, 0, 0, 1.4174301624298096, -850.5721110411803, 404.30797463215356)"/><path d="M 734.4000244140625 242.10000610351562 L 659 242.10000610351562 L 664.5999755859375 198.6999969482422 L 728.7999877929688 198.6999969482422 Z" class="st0" style="fill: rgb(255, 255, 255);" transform="matrix(1.4174301624298093, 0, 0, 1.4174301624298093, -871.865281021739, 412.1528250682759)"/><path class="st10" d="M736.3,243.7h-79.1l6.1-46.6h67L736.3,243.7z M660.8,240.4h71.8l-5.2-40.2h-61.3L660.8,240.4z" style="fill: rgb(0, 56, 78);" transform="matrix(1.4174301624298093, 0, 0, 1.4174301624298093, -871.865281021739, 412.1528250682759)"/><path d="M 721 207.39999389648438 L 668.0999755859375 207.39999389648438 L 668.5999755859375 203.3000030517578 L 721 203.3000030517578 Z" class="st13" style="fill: rgb(209, 211, 212);" transform="matrix(1.4174301624298093, 0, 0, 1.4174301624298093, -871.865281021739, 412.1528250682759)"/><path d="M 712.9000244140625 215.8000030517578 L 667 215.8000030517578 L 667.5 211.6999969482422 L 712.9000244140625 211.6999969482422 Z" class="st13" style="fill: rgb(209, 211, 212);" transform="matrix(1.4174301624298093, 0, 0, 1.4174301624298093, -871.865281021739, 412.1528250682759)"/><path d="M 708.2999877929688 225.60000610351562 L 665.5999755859375 225.60000610351562 L 666.0999755859375 221.5 L 708.2999877929688 221.5 Z" class="st13" style="fill: rgb(209, 211, 212);" transform="matrix(1.4174301624298093, 0, 0, 1.4174301624298093, -871.865281021739, 412.1528250682759)"/><path d="M 719.2000122070312 235.3000030517578 L 664.4000244140625 235.3000030517578 L 664.9000244140625 231.1999969482422 L 719.2000122070312 231.1999969482422 Z" class="st13" style="fill: rgb(209, 211, 212);" transform="matrix(1.4174301624298093, 0, 0, 1.4174301624298093, -871.865281021739, 412.1528250682759)"/><path d="M 655 161.699997 H 738.5 V 175.499997 H 655 V 161.699997 Z" class="st19" style="fill: rgb(249, 173, 88);" transform="matrix(1.4174301624298093, 0, 0, 1.4174301624298093, -871.865281021739, 412.1528250682759)"/></svg>