<?xml version="1.0" encoding="utf-8"?>
<svg id="master-artboard" viewBox="0 0 255.90760803222656 244.3037567138672" version="1.1" xmlns="http://www.w3.org/2000/svg" x="0px" y="0px" width="255.90760803222656px" height="244.3037567138672px" style="enable-background:new 0 0 1000 1000;"><rect id="ee-background" x="0" y="0" width="255.90760803222656" height="244.3037567138672" style="fill: white; fill-opacity: 0; pointer-events: none;"/>


<g transform="matrix(1, 0, 0, 1, 2.842170943040401e-14, 7.105427357601002e-15)">
		
		
		
		<g>
			
			
			
			
			
			
		</g>
		
		
		<g>
			
			
			
			
			
			
		</g>
		<g>
			<path style="fill:#2B3038;" d="M283.5,178h-24.7V160c0-1.7-1.3-3-3-3h-14.4V84.4c0-1.7-1.3-3-3-3h-93.1c-1.7,0-3,1.3-3,3V157&#10;&#9;&#9;&#9;&#9;h-14.4c-1.7,0-3,1.3-3,3V178h-24.7c-1.7,0-3,1.3-3,3v87.8c0,1.7,1.3,3,3,3h26.5L111.1,315c-0.3,0.9-0.2,1.9,0.4,2.7&#10;&#9;&#9;&#9;&#9;c0.6,0.8,1.5,1.3,2.5,1.3h57.2h41.3h57.2c0,0,0,0,0,0c1.7,0,3-1.3,3-3c0-0.5-0.1-0.9-0.3-1.3L257,271.8h26.5c1.7,0,3-1.3,3-3V181&#10;&#9;&#9;&#9;&#9;C286.5,179.3,285.1,178,283.5,178z M252.8,163V178h-11.4V163H252.8z M191.8,119.5l6.4,22.4h-12.9L191.8,119.5z M183.7,148H200&#10;&#9;&#9;&#9;&#9;l8.4,29.5h-33.2L183.7,148z M148.3,87.4h87.1v90.1h-20.7l-20-69.6c0,0,0,0,0,0c0-0.1-0.1-0.2-0.1-0.3c0-0.1-0.1-0.2-0.1-0.2&#10;&#9;&#9;&#9;&#9;c0-0.1-0.1-0.2-0.2-0.2c-0.1-0.1-0.1-0.2-0.2-0.2c-0.1-0.1-0.1-0.1-0.2-0.2c-0.1-0.1-0.1-0.1-0.2-0.2c-0.1-0.1-0.2-0.1-0.2-0.2&#10;&#9;&#9;&#9;&#9;c-0.1-0.1-0.2-0.1-0.2-0.2c-0.1,0-0.2-0.1-0.2-0.1c-0.1,0-0.2-0.1-0.3-0.1c0,0,0,0,0,0c-0.1,0-0.1,0-0.2,0&#10;&#9;&#9;&#9;&#9;c-0.1,0-0.2-0.1-0.3-0.1c-0.1,0-0.2,0-0.3,0c-0.1,0-0.2,0-0.3,0c-0.1,0-0.2,0-0.3,0.1c-0.1,0-0.1,0-0.2,0c0,0,0,0,0,0&#10;&#9;&#9;&#9;&#9;c-0.1,0-0.2,0.1-0.3,0.1c-0.1,0-0.2,0.1-0.2,0.1c-0.1,0-0.2,0.1-0.2,0.2c-0.1,0.1-0.2,0.1-0.2,0.2c-0.1,0.1-0.1,0.1-0.2,0.2&#10;&#9;&#9;&#9;&#9;c-0.1,0.1-0.1,0.1-0.2,0.2c-0.1,0.1-0.1,0.2-0.2,0.2c-0.1,0.1-0.1,0.2-0.2,0.2c0,0.1-0.1,0.2-0.1,0.2c0,0.1-0.1,0.2-0.1,0.3&#10;&#9;&#9;&#9;&#9;c0,0,0,0,0,0l-20,69.6h-20.7V87.4z M130.9,163h11.4V178h-11.4V163z M174.2,313v-4.8h35.3v4.8H174.2z M265.4,313h-49.9v-7.8&#10;&#9;&#9;&#9;&#9;c0-1.7-1.3-3-3-3h-41.3c-1.7,0-3,1.3-3,3v7.8h-49.9l14.8-41.2h117.5L265.4,313z M280.5,265.8h-27.8H130.9h-27.8V184h24.7h127.9&#10;&#9;&#9;&#9;&#9;h24.7V265.8z" transform="matrix(1, 0, 0, 1, -36.987050541917455, -78.32552207192136)"/>
			<path style="fill:#2B3038;" d="M252.4,200.8c0,5.9,4.8,10.6,10.6,10.6s10.6-4.8,10.6-10.6s-4.8-10.6-10.6-10.6&#10;&#9;&#9;&#9;&#9;S252.4,195,252.4,200.8z M263.1,196.2c2.6,0,4.6,2.1,4.6,4.6s-2.1,4.6-4.6,4.6s-4.6-2.1-4.6-4.6S260.5,196.2,263.1,196.2z" transform="matrix(1, 0, 0, 1, -36.987050541917455, -78.32552207192136)"/>
			<path style="fill:#2B3038;" d="M237.8,211.5c5.9,0,10.6-4.8,10.6-10.6s-4.8-10.6-10.6-10.6s-10.6,4.8-10.6,10.6&#10;&#9;&#9;&#9;&#9;S232,211.5,237.8,211.5z M237.8,196.2c2.6,0,4.6,2.1,4.6,4.6s-2.1,4.6-4.6,4.6s-4.6-2.1-4.6-4.6S235.3,196.2,237.8,196.2z" transform="matrix(1, 0, 0, 1, -36.987050541917455, -78.32552207192136)"/>
			<path style="fill:#2B3038;" d="M245.7,224.1H138c-5.5,0-10,4.5-10,10c0,5.5,4.5,10,10,10h107.7c5.5,0,10-4.5,10-10&#10;&#9;&#9;&#9;&#9;C255.7,228.6,251.2,224.1,245.7,224.1z M245.7,238.1H138c-2.2,0-4-1.8-4-4c0-2.2,1.8-4,4-4h107.7c2.2,0,4,1.8,4,4&#10;&#9;&#9;&#9;&#9;C249.7,236.3,247.9,238.1,245.7,238.1z" transform="matrix(1, 0, 0, 1, -36.987050541917455, -78.32552207192136)"/>
		</g>
		
	</g></svg>