<?xml version="1.0" encoding="utf-8"?>
<svg id="master-artboard" viewBox="0 0 195.86373901367188 245.96945190429688" version="1.1" xmlns="http://www.w3.org/2000/svg" x="0px" y="0px" width="195.86373901367188px" height="245.96945190429688px" style="enable-background:new 0 0 1000 1000;"><rect id="ee-background" x="0" y="0" width="195.86373901367188" height="245.96945190429688" style="fill: white; fill-opacity: 0; pointer-events: none;"/>

<g transform="matrix(1, 0, 0, 1, 2.842170943040401e-14, 7.105427357601002e-15)">
		
		
		
		<g transform="matrix(1, 0, 0, 1, -713.7015084191173, -376.40422019364405)">
			<path style="fill:#2B3038;" d="M902.3,477.8h-24.7v-17.9c0-1.7-1.3-3-3-3h-14.4v-72.6c0-1.7-1.3-3-3-3h-93.1c-1.7,0-3,1.3-3,3&#10;&#9;&#9;&#9;&#9;v72.6h-14.4c-1.7,0-3,1.3-3,3v17.9H719c-1.7,0-3,1.3-3,3v87.8c0,1.7,1.3,3,3,3h26.5L730,614.8c-0.3,0.9-0.2,1.9,0.4,2.7&#10;&#9;&#9;&#9;&#9;c0.6,0.8,1.5,1.3,2.5,1.3H790h41.3h57.2c0,0,0,0,0,0c1.7,0,3-1.3,3-3c0-0.5-0.1-0.9-0.3-1.3l-15.4-42.8h26.5c1.7,0,3-1.3,3-3&#10;&#9;&#9;&#9;&#9;v-87.8C905.3,479.1,904,477.8,902.3,477.8z M871.6,462.9v14.9h-11.4v-14.9H871.6z M767.1,387.2h87.1v90.1h-87.1V387.2z&#10;&#9;&#9;&#9;&#9; M749.7,462.9h11.4v14.9h-11.4V462.9z M793,612.8V608h35.3v4.8H793z M884.2,612.8h-49.9V605c0-1.7-1.3-3-3-3H790&#10;&#9;&#9;&#9;&#9;c-1.7,0-3,1.3-3,3v7.8h-49.9l14.8-41.2h117.5L884.2,612.8z M899.3,565.6h-27.8H749.8H722v-81.8h24.7h127.9h24.7V565.6z"/>
			<path style="fill:#2B3038;" d="M871.2,500.6c0,5.9,4.8,10.6,10.6,10.6s10.6-4.8,10.6-10.6s-4.8-10.6-10.6-10.6&#10;&#9;&#9;&#9;&#9;S871.2,494.8,871.2,500.6z M881.9,496c2.6,0,4.6,2.1,4.6,4.6s-2.1,4.6-4.6,4.6s-4.6-2.1-4.6-4.6S879.3,496,881.9,496z"/>
			<path style="fill:#2B3038;" d="M856.7,511.3c5.9,0,10.6-4.8,10.6-10.6s-4.8-10.6-10.6-10.6s-10.6,4.8-10.6,10.6&#10;&#9;&#9;&#9;&#9;S850.8,511.3,856.7,511.3z M856.7,496c2.6,0,4.6,2.1,4.6,4.6s-2.1,4.6-4.6,4.6s-4.6-2.1-4.6-4.6S854.1,496,856.7,496z"/>
			<path style="fill:#2B3038;" d="M864.5,523.9H756.8c-5.5,0-10,4.5-10,10c0,5.5,4.5,10,10,10h107.7c5.5,0,10-4.5,10-10&#10;&#9;&#9;&#9;&#9;C874.5,528.4,870,523.9,864.5,523.9z M864.5,538H756.8c-2.2,0-4-1.8-4-4c0-2.2,1.8-4,4-4h107.7c2.2,0,4,1.8,4,4&#10;&#9;&#9;&#9;&#9;C868.5,536.1,866.7,538,864.5,538z"/>
			<path style="fill:#2B3038;" d="M825,430.6c-0.5-0.9-1.5-1.5-2.6-1.5c-1.1,0-2.1,0.6-2.6,1.5l-6.8,11.8l-9.2-15.9&#10;&#9;&#9;&#9;&#9;c-0.5-0.9-1.5-1.5-2.6-1.5s-2.1,0.6-2.6,1.5l-16,27.7c-0.5,0.9-0.5,2.1,0,3c0.5,0.9,1.5,1.5,2.6,1.5h23.5h8.5h0H836c0,0,0,0,0,0&#10;&#9;&#9;&#9;&#9;c1.7,0,3-1.3,3-3c0-0.7-0.2-1.3-0.6-1.8L825,430.6z M801.2,434.1l10.8,18.7h-21.6L801.2,434.1z M818.9,452.8l-2.5-4.3l6-10.3&#10;&#9;&#9;&#9;&#9;l8.5,14.6H818.9z"/>
			<path style="fill:#2B3038;" d="M816.8,426c5.6,0,10.1-4.5,10.1-10.1s-4.5-10.1-10.1-10.1s-10.1,4.5-10.1,10.1&#10;&#9;&#9;&#9;&#9;S811.2,426,816.8,426z M816.8,411.7c2.3,0,4.1,1.9,4.1,4.1c0,2.3-1.9,4.1-4.1,4.1s-4.1-1.9-4.1-4.1&#10;&#9;&#9;&#9;&#9;C812.6,413.6,814.5,411.7,816.8,411.7z"/>
		</g>
		
		
		
		
		
	</g>
</svg>