<?xml version="1.0" encoding="utf-8"?>
<svg id="master-artboard" viewBox="0 0 251.75094604492188 205.7109375" version="1.0" xmlns="http://www.w3.org/2000/svg" x="0px" y="0px" width="251.75094604492188px" height="205.7109375px" enable-background="new 0 0 1400 980"><rect id="ee-background" x="0" y="0" width="251.75094604492188" height="205.7109375" style="fill: white; fill-opacity: 0; pointer-events: none;"/>
<g transform="matrix(1.345036029815674, 0, 0, 1.345036029815674, -610.1667744655612, -335.1261676191761)">
			<path fill="#4F4F4F" d="M621.1,278.7v-10.1h-14.5v-8.9h-29.2v8.9H569c-8.1,0-15.3,3.8-19.9,9.8c-1.9-5.7-6.4-10.3-12.3-12.2&#10;&#9;&#9;&#9;&#9;l-48.4-14v16.5h-15.6v10.1h-16.1v111.2H521l9.8,8.1h32.3l9.8-8.1h64.2V278.7H621.1z M479.1,274.9h9.3V362l20.3,5.8h-29.7V274.9z&#10;&#9;&#9;&#9;&#9; M543.8,391.8h-10.8l-9.8-8.1H463V285h9.8v89.2h55.3c2.6,1.3,5,2.9,7.3,4.8c0.1,0.1,0.2,0.2,0.3,0.2l2.1,1.8h6.1V391.8z&#10;&#9;&#9;&#9;&#9; M543.8,293.7v81h-3.7l-0.4-0.3c-3.1-2.7-6.5-4.8-10.2-6.5c-2-0.9-4.1-1.7-6.3-2.3l-28.6-8.2v-96.9l28.2,8.2l12.1,3.5&#10;&#9;&#9;&#9;&#9;c5.4,1.8,9,6.8,9,12.4v7.5c0,0,0,0.1,0.1,0.1C543.9,292.6,543.8,293.2,543.8,293.7z M583.8,265.9h16.7v36l-8.3-5.2l-8.3,5.2&#10;&#9;&#9;&#9;&#9;V265.9z M550.1,292l0.1-0.1c0.9-9.5,9-17,18.8-17h8.5v38.3l14.6-9.1l14.6,9.1v-38.3h8.2v93h-53l-8,6.8h-3.7v-81&#10;&#9;&#9;&#9;&#9;C550.1,293.2,550.1,292.6,550.1,292C550.1,292,550.1,292,550.1,292z M631,383.6h-60.2l-9.8,8.1h-10.8V381h6l8-6.8h57V285h9.8&#10;&#9;&#9;&#9;&#9;V383.6z"/>
		</g><path fill="#4F4F4F" d="M543.8,292c0,0-0.1-0.1-0.1-0.1c0.1,0.6,0.1,1.2,0.1,1.9C543.8,293.2,543.9,292.6,543.8,292&#10;&#9;&#9;&#9;&#9;C543.9,292,543.9,292,543.8,292z M535.7,379.2c-0.1-0.1-0.2-0.2-0.3-0.2l2.4,2L535.7,379.2z" transform="matrix(1.345036029815674, 0, 0, 1.345036029815674, -610.1667744655612, -335.1261676191761)"/><path fill="#4F4F4F" d="M543.8,292c0,0-0.1-0.1-0.1-0.1c0.1,0.6,0.1,1.2,0.1,1.9C543.8,293.2,543.9,292.6,543.8,292&#10;&#9;&#9;&#9;&#9;C543.9,292,543.9,292,543.8,292z" transform="matrix(1.345036029815674, 0, 0, 1.345036029815674, -610.1667744655612, -335.1261676191761)"/><path fill="#4F4F4F" d="M550.1,292C550.1,292,550.1,292,550.1,292c0,0.6,0,1.2,0,1.7c0-0.6,0-1.3,0.1-1.9L550.1,292z" transform="matrix(1.345036029815674, 0, 0, 1.345036029815674, -610.1667744655612, -335.1261676191761)"/><path fill="#4F4F4F" d="M550.1,292C550.1,292,550.1,292,550.1,292c0,0.6,0,1.2,0,1.7c0-0.6,0-1.3,0.1-1.9L550.1,292z" transform="matrix(1.345036029815674, 0, 0, 1.345036029815674, -610.1667744655612, -335.1261676191761)"/><path fill="#4F4F4F" d="M550,292.1c0,0.6,0.1,1.1,0.1,1.7L550,292.1C550.1,292,550.1,292,550,292.1z M543.8,292v1.7&#10;&#9;&#9;&#9;&#9;C543.8,293.2,543.9,292.6,543.8,292C543.9,292,543.9,292,543.8,292z" transform="matrix(1.345036029815674, 0, 0, 1.345036029815674, -610.1667744655612, -335.1261676191761)"/>
</svg>